<?xml version="1.0" encoding="UTF-8"?>
<svg id="Layer_1" xmlns="http://www.w3.org/2000/svg" version="1.1" viewBox="0 0 2000 2000">
  <!-- Generator: Adobe Illustrator 29.3.1, SVG Export Plug-In . SVG Version: 2.1.0 Build 151)  -->
  <g>
    <path d="M392.95,890.56c0,7.06-3.04,11.65-9.11,13.79-4.92,1.64-17.89,2.46-38.89,2.46s-34.96-.82-44.31-2.46c-4.43-.82-7.35-1.68-8.74-2.58-1.4-.9-3.16-3.24-5.29-7.02-11.98-21.99-23.88-43.98-35.69-65.97-19.53-35.45-31.18-54.98-34.96-58.59-17.72,6.4-26.59,11-26.59,13.79,0,12.31.49,30.89,1.48,55.76.98,24.86,1.48,43.53,1.48,56,0,5.09-2.22,7.96-6.65,8.62-8.54,1.31-23.96,1.97-46.28,1.97s-35.45-.66-42.34-1.97c-4.76-.98-7.14-3.53-7.14-7.63,0-17.72.86-44.47,2.58-80.25,1.72-35.78,2.58-62.61,2.58-80.5,0-19.04-.82-47.63-2.46-85.79-1.64-38.16-2.46-66.75-2.46-85.79,0-3.61,1.72-5.42,5.17-5.42,5.08,0,12.76.25,23.02.74,10.25.49,17.93.74,23.02.74s13.05-.25,23.39-.74c10.34-.49,18.05-.74,23.14-.74,2.79,0,4.19,1.48,4.19,4.43,0,12.15-.62,30.49-1.85,55.02-1.23,24.54-1.85,42.88-1.85,55.02,0,14.12,3.85,21.17,11.57,21.17,19.53,0,34.71-5.33,45.54-16,8.04-7.88,16.16-22.24,24.37-43.08,5.25-15.92,13.87-39.39,25.85-70.4,1.8-4.1,5.5-6.15,11.08-6.15,4.27,0,10.71.25,19.32.74,8.62.49,15.05.74,19.32.74s11.04-.16,19.82-.49c8.78-.33,15.3-.49,19.57-.49,3.94,0,5.91,1.89,5.91,5.66,0,5.42-3.45,18.63-10.34,39.63-20.35,62.03-43.74,100.77-70.16,116.19-5.42,3.12-8.12,5.66-8.12,7.63,0-.16,15.14,24.46,45.42,73.85,30.28,49.4,45.42,78.77,45.42,88.13Z"/>
    <path d="M714.7,901.89c0,1.15-1.64,1.97-4.92,2.46-6.24.98-21.91,1.48-47.02,1.48-21.5,0-36.11-.49-43.82-1.48-3.61-.49-5.66-.9-6.15-1.23-.98-.49-2.13-2.13-3.45-4.92-2.46-6.4-6.07-15.92-10.83-28.56-6.4-16.41-16.41-40.62-30.03-72.62-2.95-6.4-9.77-9.93-20.43-10.59,4.92.33-3.53.49-25.35.49-2.46,0-3.69,4.18-3.69,12.55,0,11.16,1.02,27.82,3.08,49.97,2.05,22.16,3.08,38.81,3.08,49.97,0,2.79-.74,4.43-2.22,4.92-2.3.16-4.6.33-6.89.49-9.69.65-24.78.98-45.29.98-23.47,0-37.58-.49-42.34-1.48-4.76-.98-7.14-3.53-7.14-7.63,0-18.05.86-45.29,2.58-81.73s2.58-63.76,2.58-81.97c0-69.42-1.56-123.58-4.68-162.47l-.25-3.45c-.17-2.79,2.42-4.68,7.75-5.66,5.33-.98,30.4-1.97,75.2-2.95,30.36-.65,54.56-.98,72.62-.98,37.42,0,67.94,8.45,91.57,25.36,26.75,19.04,40.13,46.53,40.13,82.47,0,23.96-3.45,43.08-10.34,57.36-6.89,14.28-19.61,28.15-38.16,41.6-3.78,2.63-5.66,5.09-5.66,7.39,0-.16,10.01,20.43,30.03,61.79,20.02,41.36,30.03,64.17,30.03,68.43ZM611.31,681.08c0-20.02-6.57-33.89-19.69-41.6-10.18-5.91-26.09-8.86-47.76-8.86-15.59,0-23.88,2.38-24.86,7.14-.98,5.58-1.48,21.66-1.48,48.25,0,3.78.08,9.35.25,16.74.16,7.39.25,12.89.25,16.49,0,.82,2.62,1.64,7.88,2.46,10.01,1.48,20.51,2.22,31.51,2.22,35.94,0,53.91-14.28,53.91-42.83Z"/>
    <path d="M1139.4,732.03c0,51.2-16.33,94.12-48.99,128.75-33.32,35.12-75.49,52.68-126.53,52.68s-92.81-17.72-126.28-53.17c-32.83-34.62-49.23-77.38-49.23-128.25s16.41-93.95,49.23-128.75c33.48-35.61,75.57-53.42,126.28-53.42s92.39,17.81,126.04,53.42c32.99,35.12,49.48,78.04,49.48,128.75ZM1046.1,731.54c0-24.62-7.47-45.54-22.4-62.77-15.59-18.05-35.53-27.08-59.82-27.08s-42.75,9.35-58.83,28.06c-15.59,18.06-23.39,38.81-23.39,62.28,0,25.11,7.3,46.03,21.91,62.77,15.42,17.56,35.53,26.34,60.31,26.34,23.14,0,42.83-9.27,59.08-27.82,15.42-17.72,23.14-38.32,23.14-61.79Z"/>
    <path d="M1560.4,566.61c0,18.71-.78,46.81-2.34,84.31-1.56,37.5-2.34,65.69-2.34,84.56v162.23c0,4.43-2.38,6.65-7.14,6.65-3.94,0-9.89.16-17.85.49-7.96.33-13.91.49-17.85.49-4.27,0-10.67-.33-19.2-.98-8.54-.65-14.94-.98-19.2-.98-2.95,0-6.49-2.71-10.58-8.12-11.82-15.92-38.4-51.2-79.76-105.85-11.32-15.26-28.56-37.74-51.7-67.45-.66-.98-1.89-1.97-3.69-2.95-1.32,1.15-1.97,2.95-1.97,5.42,0,19.04.53,47.6,1.6,85.67,1.07,38.08,1.6,66.63,1.6,85.67,0,5.75-2.22,8.62-6.65,8.62h-85.17c-4.76,0-7.14-2.54-7.14-7.63,0-17.72.86-44.47,2.58-80.25,1.72-35.78,2.58-62.61,2.58-80.5,0-18.87-.78-47.1-2.34-84.68-1.56-37.58-2.34-65.73-2.34-84.44,0-3.61,3.2-5.42,9.6-5.42,9.52,0,21.25-.65,35.2-1.97,3.28-.33,9.76-1.39,19.45-3.2,8.21-1.48,14.69-2.22,19.45-2.22,1.97,0,5,2.79,9.11,8.37l91.82,125.79c8.2,11.32,20.59,27.9,37.17,49.73,4.1,5.09,7.63,7.63,10.58,7.63,2.13,0,3.2-6.4,3.2-19.2,0-17.23-.95-43.16-2.83-77.79-1.89-34.62-2.83-60.64-2.83-78.04,0-6.07,1.72-9.11,5.17-9.11,9.85,0,24.7-.41,44.56-1.23,19.85-.82,34.71-1.23,44.56-1.23,3.12,0,4.68,2.55,4.68,7.63Z"/>
    <path d="M1930.15,896.47c.33,4.43-1.97,6.65-6.89,6.65-3.12,0-12.1-1.8-26.96-5.42-14.86-3.61-24-6.07-27.45-7.39-34.3,13.46-67.2,20.19-98.71,20.19-50.71,0-92.31-16.9-124.81-50.71-32.17-33.31-48.25-75.41-48.25-126.28s15.59-95.18,46.77-129.48c32.16-35.45,73.93-53.17,125.3-53.17,24.94,0,48.41,4.76,70.4,14.28,23.79,10.5,42.5,25.27,56.13,44.31,2.79,3.94,4.18,6.73,4.18,8.37,0,5.25-7.35,17.03-22.03,35.33-14.69,18.3-24.17,27.45-28.43,27.45-.98,0-4.76-3.36-11.32-10.09-8.04-8.04-16.25-14.28-24.62-18.71-12.47-6.73-26.26-10.09-41.36-10.09-24.62,0-44.15,9.19-58.59,27.57-13.46,16.9-20.19,37.99-20.19,63.27,0,26.75,6.97,47.92,20.92,63.51,14.44,16.09,34.87,24.12,61.3,24.12,16.74,0,35.45-4.18,56.13-12.55-.49-5.42-1.97-19.2-4.43-41.36-2.13-17.07-3.2-30.85-3.2-41.36,0-3.12,1.07-5,3.2-5.66.82-.33,2.13-.49,3.94-.49,4.76,0,11.94.45,21.54,1.35,9.6.9,16.86,1.35,21.79,1.35,5.25,0,13.13-.37,23.63-1.11,10.5-.74,18.38-1.11,23.63-1.11,4.1,0,6.15,2.71,6.15,8.12,0,7.88-.45,19.78-1.35,35.69-.9,15.92-1.35,27.82-1.35,35.69,0,21.17,1.56,52.85,4.68,95.02l.25,2.71Z"/>
  </g>
  <g>
    <path d="M489.88,1052.55c0,4.89-2.69,7.33-8.06,7.33-9.29,0-46.04-1.83-110.27-5.5-1.47,61.79-2.2,104.9-2.2,129.32,0,28.82,1.16,72.17,3.48,130.06,2.32,57.88,3.48,101.24,3.48,130.06,0,4.64-1.1,7.57-3.3,8.79-.73.49-4.16,1.1-10.26,1.83-14.65,1.95-36.15,2.93-64.48,2.93-31.51,0-53.61-.98-66.31-2.93-6.84-1.22-10.26-5-10.26-11.36,0-28.82,1.22-72.04,3.66-129.69,2.44-57.64,3.66-100.87,3.66-129.69,0-19.05-.98-61.55-2.93-127.49-48.85,4.89-87.8,7.33-116.87,7.33-3.91,0-5.86-1.22-5.86-3.66,0-3.17,1.71-12.58,5.13-28.21,3.9-17.09,6.1-27.48,6.59-31.14.73-11.48,1.59-22.95,2.56-34.44,1.71-18.32,4.64-27.48,8.79-27.48.49,0,2.2.13,5.13.37,39.57,5.13,98.06,7.69,175.48,7.69,21.98,0,62.52-2.32,121.63-6.96,31.75-2.44,47.75-3.66,47.99-3.66,4.88,0,7.69.31,8.43.92.73.61,1.22,2.99,1.47,7.14,0,6.59-.25,15.75-.73,27.48-.49,12.95-.73,22.11-.73,27.48,0,6.11.79,15.08,2.38,26.93,1.59,11.85,2.38,20.7,2.38,26.56Z"/>
    <path d="M1020.72,1443.08c0,5.13-1.1,8.31-3.3,9.53-.98.73-4.4,1.35-10.26,1.83-14.9,1.47-35.9,2.2-63.01,2.2-38.35,0-60.88-.73-67.59-2.2-6.72-1.47-10.08-4.76-10.08-9.89,0-19.29.92-48.3,2.75-87.01,1.83-38.71,2.75-67.71,2.75-87.01,0-9.53-2.69-15.02-8.06-16.49-8.31-1.95-37.86-2.93-88.66-2.93s-80.84.98-89.39,2.93c-5.38,1.22-8.06,6.72-8.06,16.49,0,19.05.61,47.57,1.83,85.54,1.22,37.98,1.83,66.49,1.83,85.54,0,7.33-3.3,11.6-9.89,12.82-7.82,1.47-30.77,2.2-68.87,2.2-32.97,0-53.98-.73-63.01-2.2-7.09-1.22-10.62-5-10.62-11.36,0-26.38,1.28-66.18,3.85-119.43,2.56-53.24,3.85-93.17,3.85-119.8,0-28.33-1.23-70.89-3.66-127.67-2.44-56.79-3.66-99.34-3.66-127.67,0-5.37,2.56-8.06,7.69-8.06,7.57,0,18.99.37,34.25,1.1,15.26.73,26.68,1.1,34.25,1.1s19.6-.37,35.35-1.1c15.75-.73,27.53-1.1,35.35-1.1,4.15,0,6.23,2.2,6.23,6.59,0,18.32-1.35,45.74-4.03,82.25-2.69,36.52-4.03,63.93-4.03,82.25,0,8.55,2.32,13.55,6.96,15.02,6.35,1.96,37.61,2.93,93.79,2.93,52.26,0,82.55-.97,90.86-2.93,5.86-1.47,8.79-6.47,8.79-15.02,0-17.58-.86-44.15-2.56-79.68-1.71-35.54-2.56-62.22-2.56-80.05,0-7.57,3.05-11.36,9.16-11.36,7.08,0,17.89.37,32.42,1.1,14.53.73,25.46,1.1,32.79,1.1s17.89-.37,32.42-1.1c14.53-.73,25.46-1.1,32.79-1.1s10.62,2.93,10.62,8.79c0,28.09-1.16,70.47-3.48,127.12-2.32,56.67-3.48,99.16-3.48,127.49,0,26.62,1.28,66.56,3.85,119.8,2.56,53.25,3.85,93.05,3.85,119.43Z"/>
    <path d="M1571.35,1445.28c0,4.4-3.06,7.45-9.16,9.16-7.33,1.95-30.04,2.93-68.14,2.93-34.93,0-57.4-.98-67.41-2.93-8.31-1.71-13.56-7.2-15.75-16.49-8.31-35.17-14.78-53.97-19.42-56.42-3.91-1.71-36.64-2.56-98.18-2.56-41.52,0-63.62,1.1-66.31,3.3-4.16,3.91-8.79,16.98-13.92,39.2-4.64,20.28-10.26,31.27-16.85,32.97-8.31,1.95-36.15,2.93-83.53,2.93-37.37,0-56.05-3.54-56.05-10.62,0-6.35,27.6-84.38,82.8-234.1,59.84-161.93,92.32-250.95,97.45-267.07,2.93-9.28,6.35-13.92,10.26-13.92,6.59,0,16.79.61,30.59,1.83,13.79,1.23,24.12,1.83,30.96,1.83s16.3-.42,29.12-1.28c12.82-.85,22.4-1.28,28.76-1.28,4.64,0,8.91,4.03,12.82,12.09,11.96,25.64,46.89,113.57,104.78,263.77,58.12,151.18,87.19,230.07,87.19,236.66ZM1311.61,1111.53c-5.13,10.75-13.8,34.07-26.01,69.97-13.19,38.1-19.78,60.45-19.78,67.04,0,4.4,7.33,6.84,21.98,7.33,7.57.49,20.02.73,37.37.73,16.12,0,25.03-1.95,26.74-5.86.49-1.22.73-2.93.73-5.13,0-8.06-5.62-30.28-16.85-66.68-10.99-35.17-19.05-57.64-24.18-67.41Z"/>
    <path d="M1639.02,991.55c0,4.76.57,11.67,1.71,20.72,1.14,9.05,1.71,15.86,1.71,20.43,0,3.62-2.76,5.43-8.29,5.43-4.76,0-11.86-.24-21.29-.71-9.43-.47-16.53-.71-21.29-.71-4.19,0-10.38.29-18.57.86-8.19.57-14.38.86-18.57.86-4.95,0-7.43-2.38-7.43-7.14,0-4,.29-10,.86-18,.57-8,.86-14,.86-18,0-5.14-.38-12.81-1.14-23-.76-10.19-1.14-17.86-1.14-23,0-5.52,3.14-8.29,9.43-8.29,8.19,0,20.47.14,36.86.43,16.38.29,28.62.43,36.72.43s12.14,2.67,12.14,8c0,4.57-.43,11.53-1.29,20.86-.86,9.34-1.29,16.29-1.29,20.86ZM1717.31,1243.28c0,22.48.57,56.29,1.71,101.44,1.14,45.15,1.71,78.96,1.71,101.43,0,3.81-.86,6.19-2.57,7.14-.38.19-2.86.57-7.43,1.14-12.38,1.52-28.96,2.29-49.72,2.29-27.81,0-45.53-.76-53.15-2.29-5.53-1.14-8.29-4.09-8.29-8.86,0,3.05.86-13.72,2.57-50.29,3.43-77.15,5.14-127.82,5.14-152.01,0-20.38-.67-50.95-2-91.72-1.33-40.76-2-71.33-2-91.72,0-4.19,2.19-6.29,6.57-6.29,5.9,0,14.81.29,26.72.86,11.9.57,20.81.86,26.72.86s14.62-.29,26.14-.86c11.52-.57,20.24-.86,26.14-.86,5.52,0,8.29,2.1,8.29,6.29,0,20.38-1.1,50.96-3.29,91.72-2.19,40.77-3.29,71.34-3.29,91.72ZM1780.46,990.41c0,4.57.71,11.34,2.14,20.29,1.43,8.96,2.14,15.62,2.14,20,0,3.05-3.81,5.05-11.43,6-5.33.76-12.76,1.05-22.29.86-14.67-.57-20.48-.86-17.43-.86-3.81,0-9.53.19-17.14.57-7.62.38-13.34.57-17.14.57-7.05,0-10.57-3.62-10.57-10.86,0-4.19.19-10.29.57-18.29.38-8,.57-14.09.57-18.29s-.24-11.09-.71-20.14c-.48-9.04-.71-15.76-.71-20.14,0-6.67,2.76-10,8.29-10,4.76,0,11.9.38,21.43,1.14,9.52.76,16.67,1.14,21.43,1.14,3.81,0,9.57-.14,17.29-.43,7.71-.29,13.47-.43,17.29-.43,6.47,0,9.71,2.1,9.71,6.29,0,4.76-.57,11.86-1.71,21.29-1.14,9.43-1.71,16.53-1.71,21.29Z"/>
  </g>
</svg>