<?xml version="1.0" encoding="UTF-8"?>
<svg id="Layer_1" xmlns="http://www.w3.org/2000/svg" version="1.1" viewBox="0 0 2000 800">
  <!-- Generator: Adobe Illustrator 29.3.1, SVG Export Plug-In . SVG Version: 2.1.0 Build 151)  -->
  <defs>
    <style>
      .st0 {
        font-family: BerlinSansFBDemi-Bold, 'Berlin Sans FB Demi';
        font-size: 228.82px;
        font-weight: 700;
      }

      .st1 {
        fill: #ea1f27;
      }
    </style>
  </defs>
  <path class="st1" d="M136.9,382.38c1.59,0,2.89-1.29,2.89-2.89,0-26.19,21.31-47.5,47.5-47.5,12.65,0,24.56,4.92,33.53,13.86,1.13,1.13,2.96,1.12,4.08,0,1.13-1.13,1.12-2.96,0-4.08-10.06-10.02-23.41-15.54-37.6-15.54-29.38,0-53.28,23.9-53.28,53.28,0,1.59,1.29,2.89,2.89,2.89Z"/>
  <path class="st1" d="M215.34,355.22c1.12-1.13,1.11-2.96-.03-4.08-7.52-7.42-17.47-11.51-28.02-11.51-21.99,0-39.88,17.89-39.88,39.88,0,1.59,1.29,2.89,2.89,2.89s2.89-1.29,2.89-2.89c0-18.8,15.3-34.1,34.1-34.1,9.02,0,17.53,3.5,23.96,9.85,1.13,1.12,2.96,1.11,4.08-.03Z"/>
  <path class="st1" d="M204.24,367.63c.91,1.31,2.72,1.62,4.02.71,1.31-.91,1.62-2.72.71-4.02-4.96-7.07-13.06-11.29-21.67-11.29-14.6,0-26.47,11.88-26.47,26.47,0,1.59,1.29,2.89,2.89,2.89s2.89-1.29,2.89-2.89c0-11.41,9.29-20.7,20.7-20.7,6.73,0,13.06,3.3,16.94,8.84Z"/>
  <path class="st1" d="M174.22,379.5c0,1.59,1.29,2.89,2.89,2.89s2.89-1.29,2.89-2.89c0-4.02,3.27-7.3,7.3-7.3s7.3,3.27,7.3,7.3c0,1.59,1.29,2.89,2.89,2.89s2.89-1.29,2.89-2.89c0-7.21-5.86-13.07-13.07-13.07s-13.07,5.86-13.07,13.07Z"/>
  <path class="st1" d="M283.68,382.38c1.59,0,2.89-1.29,2.89-2.89,0-21.05-17.12-38.17-38.17-38.17s-38.17,17.12-38.17,38.17c0,1.59,1.29,2.89,2.89,2.89s2.89-1.29,2.89-2.89c0-17.86,14.53-32.39,32.39-32.39s32.39,14.53,32.39,32.39c0,1.59,1.29,2.89,2.89,2.89Z"/>
  <path class="st1" d="M268.24,379.5c0,1.59,1.29,2.89,2.89,2.89s2.89-1.29,2.89-2.89c0-14.13-11.49-25.62-25.62-25.62s-25.62,11.49-25.62,25.62c0,1.59,1.29,2.89,2.89,2.89s2.89-1.29,2.89-2.89c0-10.94,8.9-19.84,19.85-19.84s19.85,8.9,19.85,19.84Z"/>
  <path class="st1" d="M235.32,379.5c0,1.59,1.29,2.89,2.89,2.89s2.89-1.29,2.89-2.89c0-4.02,3.27-7.3,7.3-7.3s7.3,3.27,7.3,7.3c0,1.59,1.29,2.89,2.89,2.89s2.89-1.29,2.89-2.89c0-7.21-5.86-13.07-13.07-13.07s-13.07,5.86-13.07,13.07Z"/>
  <path class="st1" d="M137.4,349.14c1.5.55,3.16-.21,3.71-1.71.55-1.5-.21-3.16-1.71-3.71-4.3-1.59-8.74-2.39-13.21-2.39-21.05,0-38.17,17.12-38.17,38.17,0,1.59,1.29,2.89,2.89,2.89s2.89-1.29,2.89-2.89c0-17.86,14.53-32.39,32.39-32.39,3.78,0,7.55.68,11.2,2.03Z"/>
  <path class="st1" d="M135.25,358.46c.44-1.53-.45-3.13-1.98-3.57-2.34-.67-4.72-1.01-7.08-1.01-14.13,0-25.62,11.49-25.62,25.62,0,1.59,1.29,2.89,2.89,2.89s2.89-1.29,2.89-2.89c0-10.94,8.9-19.84,19.84-19.84,1.82,0,3.67.26,5.49.79,1.53.44,3.13-.45,3.57-1.98Z"/>
  <path class="st1" d="M129.94,367.02c-1.34-.4-2.56-.6-3.75-.6-7.21,0-13.07,5.86-13.07,13.07,0,1.59,1.29,2.89,2.89,2.89s2.89-1.29,2.89-2.89c0-4.02,3.27-7.3,7.3-7.3.62,0,1.29.11,2.09.35,1.53.46,3.14-.41,3.6-1.93.46-1.53-.41-3.14-1.93-3.6Z"/>
  <path class="st1" d="M210.41,258.03c-1.28-.36-2.61.39-2.97,1.67-.16.58-.28,1.13-.42,1.68l-7.35,2.78c-.19-.5-.53-.94-1.03-1.23-1.15-.67-2.62-.28-3.3.87-.49.84-.89,1.66-1.23,2.47l-6.51,2.46c-.3-.78-.99-1.39-1.87-1.53-.98-.15-1.92.31-2.41,1.1l-.07.08c-.73.86-1.36,1.77-1.9,2.71l-6.57,2.49c-.21-.56-.63-1.05-1.22-1.33-.99-.47-2.13-.21-2.83.57-.06.04-.14.09-.22.15-.85.57-2.48,1.65-3.81,3.67l-6.95,2.63c-.41-1.07-1.53-1.74-2.7-1.52-4.24.8-6.27,3.18-7.25,5.28l-24.87,9.41c-.42.16-.65.63-.5,1.06.15.44.63.68,1.07.54l23.41-7.8c-.08.67-.1,1.35-.07,2.03l-17.32,4.15c-.44.11-.72.54-.63.99.09.46.54.76,1,.67l17.26-3.41c.41,1.93,1.18,3.68,2.14,4.88.99,1.24,1.92,2.26,2.75,3.16,2.43,2.64,3.64,3.96,3.64,7.7,0,1.92-.91,2.82-2.65,4.38-1.8,1.61-4.26,3.81-4.26,7.97s2.46,6.37,4.26,7.98c.37.33.75.67,1.1,1.02.47.47,1.09.7,1.7.7s1.23-.24,1.7-.71c.94-.94.94-2.47,0-3.41-.42-.42-.86-.81-1.3-1.21-1.74-1.56-2.65-2.46-2.65-4.38s.91-2.82,2.65-4.38c1.8-1.61,4.26-3.81,4.26-7.97,0-5.61-2.28-8.09-4.91-10.96-.81-.88-1.65-1.79-2.53-2.9-.22-.28-.43-.66-.62-1.11-.22-.5-.4-1.08-.54-1.71-.18-.84-.26-1.74-.2-2.62.04-.58.14-1.15.33-1.67.06-.17.14-.33.22-.49.11-.21.23-.42.37-.6l10.33-3.44c-.09.43-.17.88-.23,1.35-.09.69-.12,1.45-.11,2.25,0,.95.06,1.96.22,3.07.08.6.19,1.21.33,1.85,0,.03,0,.05.01.07.76,3.54,2.73,5.49,4.31,7.05,1.55,1.53,2.58,2.55,2.58,4.84,0,1.93-.91,2.83-2.67,4.4-1.91,1.7-4.28,3.82-4.28,7.99,0,6.21,4.55,8.97,6.96,9.56.19.05.39.07.58.07,1.07,0,2.03-.72,2.32-1.81.33-1.28-.44-2.59-1.71-2.94-.56-.15-3.32-1.11-3.32-4.89,0-1.93.91-2.83,2.67-4.4,1.91-1.7,4.28-3.82,4.28-7.99s-2.22-6.5-4.01-8.27c-1.35-1.33-2.51-2.49-2.97-4.59,0-.02,0-.03-.01-.04-.14-.66-.24-1.27-.31-1.86-.16-1.25-.2-2.35-.12-3.29.08-.94.25-1.75.49-2.44.29-.83.68-1.5,1.1-2.03l8.44-2.81c-.17.8-.29,1.63-.35,2.48-.06.81-.08,1.64-.04,2.49.05,1.18.19,2.39.43,3.64.01.08.03.15.04.23.13.63.3,1.19.5,1.73.91,2.5,2.48,4.06,3.79,5.35,1.59,1.56,2.55,2.51,2.55,4.76,0,2.41-.97,3.4-2.57,5.05-1.45,1.49-3.26,3.35-4.22,6.57-2.13,7.14,3.27,11.53,5.31,13.19.23.19.42.34.55.46.47.58,1.16.88,1.87.88.49,0,.99-.15,1.42-.47,1.07-.79,1.3-2.29.52-3.37-.32-.43-.74-.77-1.32-1.24-2.39-1.94-4.85-4.33-3.73-8.07.62-2.08,1.75-3.24,3.06-4.58,1.84-1.89,3.93-4.04,3.93-8.41s-2.22-6.45-4-8.19c-.95-.94-1.76-1.75-2.32-2.82-.27-.51-.48-1.08-.62-1.76-.01-.07-.02-.14-.03-.22-.26-1.35-.36-2.63-.34-3.86.02-.91.1-1.8.27-2.64.22-1.09.56-2.12,1.03-3.09l7.64-2.55c-.07,1.16-.02,2.28.15,3.36.13.89.34,1.76.59,2.6.43,1.41,1,2.74,1.64,4,.35.69.72,1.36,1.1,2,.56.96,1.13,1.87,1.67,2.73,1.43,2.27,2.78,4.41,2.78,5.79,0,1.91-.91,2.81-2.64,4.36-1.79,1.6-4.25,3.79-4.25,7.95s2.45,6.35,4.25,7.96c.77.68,1.49,1.33,1.97,2.04.14.28.75,1.66.32,2.96-.32.97-1.2,1.8-2.61,2.47-1.2.57-1.72,2-1.15,3.21.41.87,1.28,1.38,2.18,1.38.34,0,.7-.07,1.03-.23,2.69-1.27,4.43-3.09,5.16-5.4,1.08-3.42-.56-6.46-.75-6.8-.02-.04-.04-.08-.07-.11-.83-1.29-1.91-2.25-2.86-3.11-1.74-1.55-2.64-2.45-2.64-4.37s.91-2.81,2.64-4.36c1.79-1.6,4.25-3.8,4.25-7.95,0-2.77-1.71-5.48-3.52-8.36-.23-.37-.46-.74-.69-1.11-.42-.67-.82-1.35-1.21-2.03-.76-1.35-1.43-2.72-1.89-4.15-.28-.87-.48-1.77-.57-2.69-.12-1.24-.06-2.52.28-3.86l8.15-2.72c-.09,1.6-.02,3.04.16,4.36.14,1.02.35,1.96.61,2.83.53,1.74,1.26,3.21,2.09,4.47.49.75,1.01,1.43,1.53,2.05.78.92,1.56,1.72,2.28,2.45,1.25,1.27,2.33,2.37,2.33,3.15,0,1.92-.91,2.82-2.65,4.37-1.8,1.6-4.26,3.8-4.26,7.97s2.46,6.36,4.26,7.97c1.74,1.56,2.65,2.46,2.65,4.37,0,.11,0,.23.02.33.04.32,1,7.99-5.16,10.36-1.24.48-1.86,1.87-1.38,3.11.37.96,1.28,1.54,2.25,1.54.29,0,.58-.05.87-.16,7.7-2.97,8.75-11.25,8.22-15.36-.07-4.05-2.49-6.21-4.26-7.79-1.74-1.56-2.65-2.46-2.65-4.37s.91-2.82,2.65-4.37c1.8-1.6,4.26-3.8,4.26-7.97,0-2.75-1.89-4.67-3.71-6.53-.66-.67-1.35-1.38-2-2.16l69.23-13.68s.11-.02.15-.03c2.11-.51,3.42-2.63,2.91-4.75-.51-2.11-2.63-3.42-4.75-2.91l-70.16,16.8c-.67-2.01-.93-4.51-.5-7.73l60.96-20.32s.1-.04.15-.05c2.03-.77,3.06-3.04,2.29-5.08-.77-2.03-3.04-3.06-5.08-2.29l-57.46,21.74c-.26-.69-.83-1.26-1.6-1.47Z"/>
  <path class="st1" d="M237.62,448.35c0-.12,0-.23,0-.35,0-.1,0-.21,0-.31,0-.3-.02-.59-.03-.89-.33-14-5.08-25.9-14.29-35.7-9.74-10.3-21.89-15.46-36.47-15.46s-26.85,5.15-36.54,15.46c-1.95,2.06-3.68,4.23-5.23,6.49-.02,0-.03,0-.05,0-5.53,8.08-8.5,17.41-8.91,28,0,.02,0,.04,0,.06-.03.77-.04,1.55-.05,2.33,0,.13,0,.25,0,.38,0,.14,0,.27,0,.41,0,.14,0,.27,0,.41,0,.12,0,.23.01.35.14,8.05,1.73,15.38,4.76,22,.06.12.11.25.17.37.25.54.52,1.08.79,1.61.33.64.67,1.27,1.02,1.9.03.05.06.11.09.16,2.16,3.8,4.83,7.35,8.01,10.65,9.88,10.16,22.12,15.14,36.69,14.92,14.67-.21,26.78-5.54,36.31-15.99,9.03-9.85,13.58-21.84,13.69-35.95,0-.28.01-.57.01-.85ZM168.21,465.03c-1.9-2.57-3.27-5.41-4.12-8.52,0-.02-.01-.04-.02-.06-.17-.63-.31-1.29-.44-1.95-.04-.2-.09-.4-.12-.6-.09-.51-.15-1.03-.21-1.54-.04-.36-.09-.71-.13-1.08-.04-.44-.05-.89-.07-1.34-.02-.43-.04-.85-.05-1.29,0-.56.02-1.11.04-1.66.01-.24.01-.48.03-.72.43-5.72,2.54-10.83,6.35-15.34,4.62-5.43,10.28-8.2,16.98-8.3,7.17-.1,13.02,2.35,17.56,7.37,4.26,4.74,6.46,10.71,6.59,17.9,0,.07,0,.13,0,.2,0,.17-.01.33-.01.5-.09,6.62-2.31,12.44-6.68,17.47-4.7,5.37-10.4,8.05-17.09,8.05-7.06,0-12.81-2.47-17.25-7.4-.38-.43-.73-.87-1.08-1.32-.1-.13-.21-.25-.3-.38Z"/>
  <path class="st1" d="M285.21,387.13H89.45c-3.51,0-6.36,2.85-6.36,6.36,0,36.17,19.13,70.15,50.02,88.95,10.44,19.14,30.74,32.16,54.04,32.16s43.36-12.87,53.86-31.83c.01.02.02.04.04.07,31.19-18.78,50.54-52.96,50.54-89.35,0-3.51-2.85-6.36-6.36-6.36ZM253.4,466.44s-.01.04-.02.06c-6.24,5.43-13.92,10.48-15.63,11.58-.07.04-.14.09-.21.13-.05.03-.09.07-.14.1h0s-1.24,1.83-1.24,1.83c-.04,0-.08,0-.12,0-.02,0-.05,0-.07,0-9.54,17.15-27.85,28.78-48.82,28.78-18.29,0-34.55-8.84-44.74-22.47-2.11-2.94-3.68-5.61-4.47-7.01-.23-.42-.45-.84-.67-1.26-.07,0-.14,0-.21.01-2.79-1.66-5.48-3.47-8.06-5.38-.09-.04-.17-.1-.26-.15-5.15-3.98-9.65-8.27-10.84-9.42-18.28-18.29-29.04-43.39-29.04-69.74,0-.32.26-.59.59-.59h195.76c.32,0,.59.26.59.59,0,27.93-12.08,54.46-32.4,72.95Z"/>
  <text class="st0" transform="translate(252.14 495.07)"><tspan x="0" y="0" xml:space="preserve"> KRONG</tspan><tspan x="1007.82" y="0"> </tspan><tspan x="1065.02" y="0">THAÏ </tspan></text>
</svg>