<?xml version="1.0" encoding="UTF-8"?>
<svg id="Layer_1" xmlns="http://www.w3.org/2000/svg" version="1.1" viewBox="0 0 2000 2000">
  <!-- Generator: Adobe Illustrator 29.3.1, SVG Export Plug-In . SVG Version: 2.1.0 Build 151)  -->
  <defs>
    <style>
      .st0 {
        fill: #ea1f27;
      }
    </style>
  </defs>
  <path class="st0" d="M670.28,1034.86c10.02,0,18.15-8.12,18.15-18.15,0-164.62,133.92-298.54,298.54-298.54,79.52,0,154.36,30.93,210.7,87.08,7.1,7.08,18.59,7.06,25.66-.04,7.07-7.1,7.05-18.59-.04-25.66-63.2-62.98-147.13-97.67-236.32-97.67-184.63,0-334.84,150.21-334.84,334.84,0,10.02,8.12,18.15,18.15,18.15Z"/>
  <path class="st0" d="M1163.2,864.13c7.04-7.13,6.97-18.62-.16-25.66-47.24-46.66-109.77-72.37-176.07-72.37-138.19,0-250.61,112.42-250.61,250.61,0,10.02,8.12,18.15,18.15,18.15s18.15-8.12,18.15-18.15c0-118.17,96.14-214.32,214.32-214.32,56.69,0,110.16,21.98,150.57,61.89,7.12,7.04,18.62,6.98,25.66-.16Z"/>
  <path class="st0" d="M1093.46,942.15c5.75,8.21,17.08,10.19,25.28,4.43,8.21-5.75,10.19-17.07,4.43-25.28-31.17-44.45-82.09-70.99-136.2-70.99-91.74,0-166.38,74.64-166.38,166.38,0,10.02,8.12,18.15,18.15,18.15s18.15-8.12,18.15-18.15c0-71.73,58.36-130.09,130.09-130.09,42.29,0,82.1,20.76,106.49,55.53Z"/>
  <path class="st0" d="M904.81,1016.71c0,10.02,8.12,18.15,18.15,18.15s18.15-8.12,18.15-18.15c0-25.29,20.58-45.86,45.87-45.86s45.86,20.57,45.86,45.86c0,10.02,8.12,18.15,18.15,18.15s18.15-8.12,18.15-18.15c0-45.3-36.85-82.16-82.15-82.16s-82.16,36.86-82.16,82.16Z"/>
  <path class="st0" d="M1592.7,1034.86c10.02,0,18.15-8.12,18.15-18.15,0-132.27-107.61-239.88-239.88-239.88s-239.87,107.61-239.87,239.88c0,10.02,8.12,18.15,18.15,18.15s18.15-8.12,18.15-18.15c0-112.25,91.32-203.58,203.57-203.58s203.58,91.33,203.58,203.58c0,10.02,8.12,18.15,18.15,18.15Z"/>
  <path class="st0" d="M1495.7,1016.71c0,10.02,8.12,18.15,18.15,18.15s18.15-8.12,18.15-18.15c0-88.79-72.23-161.02-161.02-161.02s-161.02,72.23-161.02,161.02c0,10.02,8.12,18.15,18.15,18.15s18.15-8.12,18.15-18.15c0-68.77,55.95-124.72,124.72-124.72s124.72,55.95,124.72,124.72Z"/>
  <path class="st0" d="M1288.82,1016.71c0,10.02,8.12,18.15,18.15,18.15s18.15-8.12,18.15-18.15c0-25.29,20.57-45.86,45.86-45.86s45.86,20.57,45.86,45.86c0,10.02,8.12,18.15,18.15,18.15s18.15-8.12,18.15-18.15c0-45.3-36.85-82.16-82.15-82.16s-82.15,36.86-82.15,82.16Z"/>
  <path class="st0" d="M673.37,825.91c9.42,3.47,19.84-1.34,23.31-10.74,3.47-9.4-1.34-19.84-10.74-23.31-27-9.97-54.92-15.03-82.99-15.03-132.27,0-239.87,107.61-239.87,239.88,0,10.02,8.12,18.15,18.15,18.15s18.15-8.12,18.15-18.15c0-112.25,91.32-203.58,203.58-203.58,23.76,0,47.45,4.3,70.42,12.78Z"/>
  <path class="st0" d="M659.88,884.5c2.77-9.63-2.8-19.68-12.43-22.45-14.69-4.22-29.66-6.36-44.5-6.36-88.78,0-161.01,72.23-161.01,161.02,0,10.02,8.12,18.15,18.15,18.15s18.15-8.12,18.15-18.15c0-68.77,55.95-124.72,124.71-124.72,11.45,0,23.05,1.67,34.48,4.95,9.64,2.77,19.68-2.8,22.45-12.43Z"/>
  <path class="st0" d="M626.52,938.31c-8.4-2.53-16.11-3.76-23.57-3.76-45.3,0-82.15,36.86-82.15,82.16,0,10.02,8.12,18.15,18.15,18.15s18.15-8.12,18.15-18.15c0-25.29,20.57-45.86,45.85-45.86,3.92,0,8.09.7,13.11,2.22,9.6,2.9,19.72-2.55,22.61-12.14,2.89-9.6-2.55-19.72-12.15-22.61Z"/>
  <path class="st0" d="M1132.23,253.3c-8.05-2.24-16.41,2.46-18.65,10.51-1.02,3.66-1.79,7.09-2.61,10.58l-46.2,17.48c-1.18-3.14-3.35-5.92-6.47-7.75-7.23-4.22-16.49-1.77-20.71,5.45-3.07,5.26-5.61,10.43-7.73,15.5l-40.93,15.49c-1.87-4.93-6.2-8.76-11.78-9.63-6.16-.97-12.05,1.96-15.17,6.93l-.43.52c-4.58,5.42-8.54,11.11-11.93,17.05l-41.3,15.63c-1.34-3.53-3.96-6.58-7.64-8.33-6.2-2.94-13.4-1.3-17.77,3.56-.41.28-.87.58-1.39.92-5.36,3.56-15.56,10.38-23.94,23.04l-43.68,16.53c-2.55-6.75-9.61-10.91-16.95-9.53-26.65,5.05-39.43,20-45.57,33.19l-156.32,59.15c-2.66,1.01-4.08,3.95-3.17,6.67.93,2.79,3.95,4.3,6.74,3.37l147.15-49.05c-.5,4.23-.63,8.5-.47,12.74l-108.88,26.07c-2.77.67-4.54,3.4-3.99,6.22.57,2.89,3.37,4.77,6.26,4.2l108.47-21.43c2.55,12.16,7.41,23.15,13.42,30.69,6.22,7.8,12.1,14.19,17.28,19.83,15.24,16.58,22.89,24.9,22.89,48.36,0,12.06-5.72,17.73-16.68,27.51-11.31,10.09-26.8,23.92-26.8,50.1s15.49,40.03,26.79,50.13c2.36,2.11,4.72,4.2,6.94,6.42,2.96,2.95,6.83,4.43,10.7,4.43s7.76-1.48,10.71-4.44c5.91-5.92,5.9-15.5-.01-21.41-2.62-2.62-5.39-5.1-8.16-7.58-10.96-9.79-16.69-15.47-16.69-27.54s5.72-17.73,16.68-27.51c11.31-10.09,26.8-23.92,26.8-50.11,0-35.27-14.31-50.84-30.88-68.86-5.08-5.53-10.34-11.25-15.9-18.22-1.38-1.73-2.7-4.17-3.91-6.95-1.37-3.14-2.52-6.79-3.38-10.75-1.14-5.27-1.65-10.93-1.23-16.46.27-3.65.88-7.23,2.09-10.5.4-1.08.88-2.1,1.38-3.09.68-1.34,1.44-2.61,2.31-3.78l64.94-21.65c-.58,2.68-1.05,5.51-1.42,8.46-.54,4.37-.74,9.14-.72,14.13.02,5.98.4,12.35,1.39,19.3.53,3.74,1.2,7.62,2.05,11.66.03.16.05.3.08.46,4.75,22.24,17.14,34.49,27.1,44.33,9.75,9.63,16.19,16,16.19,30.41,0,12.12-5.74,17.81-16.75,27.64-11.97,10.69-26.87,23.98-26.87,50.23,0,39.01,28.61,56.38,43.74,60.11,1.21.3,2.43.44,3.62.44,6.71,0,12.78-4.54,14.56-11.35,2.09-8.02-2.75-16.25-10.74-18.45-3.49-.96-20.89-6.96-20.89-30.75,0-12.12,5.74-17.81,16.75-27.64,11.97-10.69,26.87-23.98,26.87-50.23s-13.97-40.86-25.19-51.95c-8.48-8.38-15.79-15.63-18.69-28.84-.02-.09-.05-.17-.07-.27-.89-4.16-1.49-7.99-1.98-11.68-1.03-7.86-1.25-14.75-.78-20.69.47-5.94,1.59-10.98,3.11-15.3,1.84-5.23,4.27-9.4,6.91-12.77l53.03-17.68c-1.08,5.05-1.8,10.25-2.2,15.57-.39,5.1-.48,10.33-.25,15.67.32,7.39,1.22,15.01,2.72,22.85.09.49.16.96.26,1.45.79,3.95,1.9,7.49,3.13,10.85,5.74,15.69,15.59,25.52,23.84,33.62,10.01,9.83,16.05,15.76,16.05,29.89,0,15.14-6.07,21.38-16.13,31.71-9.14,9.39-20.52,21.07-26.54,41.28-13.38,44.88,20.58,72.49,33.36,82.89,1.44,1.17,2.65,2.11,3.45,2.88,2.97,3.63,7.32,5.54,11.72,5.54,3.11,0,6.25-.95,8.94-2.94,6.74-4.95,8.2-14.42,3.25-21.16-1.99-2.71-4.62-4.85-8.27-7.81-15.02-12.22-30.46-27.22-23.45-50.74,3.9-13.07,11-20.36,19.22-28.8,11.59-11.9,24.72-25.39,24.72-52.84s-13.92-40.51-25.11-51.5c-5.99-5.88-11.09-10.97-14.61-17.74-1.68-3.22-3.02-6.79-3.88-11.07-.09-.47-.13-.91-.21-1.38-1.61-8.46-2.28-16.53-2.15-24.23.1-5.74.62-11.29,1.69-16.6,1.37-6.83,3.5-13.31,6.47-19.4l48.03-16.01c-.46,7.28-.1,14.33.92,21.13.84,5.6,2.12,11.04,3.73,16.31,2.7,8.86,6.31,17.24,10.33,25.16,2.21,4.33,4.52,8.54,6.89,12.59,3.51,6.02,7.11,11.73,10.5,17.13,8.97,14.27,17.46,27.74,17.46,36.4,0,12-5.7,17.64-16.61,27.38-11.27,10.07-26.72,23.85-26.72,49.97s15.42,39.93,26.69,50.01c4.81,4.3,9.36,8.38,12.37,12.83.87,1.79,4.71,10.42,2.02,18.62-1.99,6.08-7.52,11.29-16.43,15.5-7.56,3.57-10.79,12.6-7.22,20.16,2.58,5.47,8.02,8.67,13.7,8.67,2.17,0,4.37-.47,6.46-1.46,16.93-8,27.83-19.41,32.42-33.94,6.8-21.5-3.53-40.62-4.72-42.73-.14-.24-.28-.48-.43-.71-5.21-8.1-11.99-14.17-17.98-19.53-10.91-9.76-16.61-15.42-16.61-27.44s5.7-17.64,16.6-27.37c11.28-10.07,26.72-23.85,26.72-49.97,0-17.39-10.74-34.46-22.11-52.53-1.46-2.32-2.91-4.64-4.36-6.97-2.62-4.21-5.18-8.46-7.61-12.75-4.78-8.46-8.97-17.11-11.85-26.1-1.76-5.49-3-11.11-3.58-16.89-.78-7.77-.36-15.83,1.75-24.26l51.22-17.07c-.55,10.05-.11,19.12,1.03,27.42.89,6.39,2.17,12.33,3.83,17.81,3.31,10.91,7.93,20.15,13.15,28.11,3.08,4.7,6.33,8.99,9.64,12.91,4.87,5.78,9.82,10.83,14.32,15.41,7.86,8,14.65,14.9,14.65,19.81,0,12.04-5.71,17.7-16.66,27.47-11.3,10.08-26.77,23.9-26.77,50.06s15.47,39.99,26.77,50.08c10.94,9.77,16.66,15.43,16.66,27.48,0,.68.05,1.42.14,2.09.28,2.04,6.31,50.2-32.41,65.13-7.8,3.01-11.69,11.77-8.68,19.58,2.32,6.01,8.05,9.7,14.13,9.7,1.8,0,3.65-.33,5.44-1.02,48.41-18.66,54.97-70.68,51.65-96.56-.42-25.47-15.62-39.04-26.77-48.99-10.94-9.77-16.66-15.43-16.66-27.48s5.71-17.7,16.66-27.47c11.3-10.08,26.77-23.9,26.77-50.06,0-17.3-11.86-29.37-23.33-41.04-4.14-4.21-8.47-8.65-12.6-13.6l435.1-85.95c.29-.06.68-.14.97-.21,13.29-3.18,21.48-16.54,18.3-29.83-3.18-13.29-16.54-21.49-29.83-18.3l-440.92,105.57c-4.18-12.63-5.87-28.32-3.16-48.59l383.14-127.72c.28-.09.65-.23.93-.33,12.78-4.84,19.22-19.12,14.39-31.9-4.84-12.78-19.12-19.22-31.9-14.39l-361.13,136.64c-1.65-4.34-5.23-7.89-10.05-9.24Z"/>
  <path class="st0" d="M1303.24,1450.65c0-.4,0-.79,0-1.19,0-.88-.02-1.76-.03-2.64,0-.5,0-.99,0-1.49,0-.24-.01-.48-.02-.72-1.04-90.1-31-166.53-89.93-229.27-61.18-64.76-137.59-97.14-229.2-97.14s-168.77,32.38-229.65,97.14c-12.24,12.98-23.21,26.59-32.94,40.81-.08,0-.15,0-.23-.01-37.75,55.14-56.54,119.56-56.36,193.27,0,.02,0,.04,0,.06,0,.3,0,.6,0,.9,0,1.42,0,2.84.03,4.27,0,.09,0,.18,0,.27.69,54.23,11.81,103.31,33.29,147.25.42.87.85,1.73,1.28,2.6.23.45.46.91.69,1.36,14.75,29.37,34.12,56.48,58.13,81.31,62.12,63.86,138.99,95.13,230.59,93.79,92.21-1.34,168.28-34.84,228.21-100.48,57.63-62.9,86.32-139.6,86.13-230.07ZM835.14,1465.66c-.04-.48-.06-.97-.1-1.45-.06-.82-.11-1.65-.16-2.48-.04-.77-.07-1.54-.11-2.31-.03-.6-.06-1.2-.08-1.8-.03-.72-.04-1.44-.06-2.16-.02-.72-.04-1.45-.05-2.18,0-.33,0-.66,0-1-.45-42.37,13.03-79.77,40.44-112.21,29.05-34.16,64.61-51.54,106.69-52.15,45.06-.66,81.85,14.77,110.36,46.3,27.01,30.05,40.84,67.91,41.5,113.56,0,.54,0,1.08,0,1.62-.19,42.33-14.21,79.49-42.07,111.5-29.54,33.73-65.36,50.59-107.44,50.59-45.07,0-81.63-15.96-109.68-47.9-.28-.32-.54-.64-.82-.96-22.84-27.19-35.66-59.51-38.44-96.99Z"/>
  <path class="st0" d="M1602.35,1064.67H372.03c-22.05,0-39.99,17.94-39.99,39.99,0,227.35,120.2,440.89,314.38,559.09,65.62,120.27,193.23,202.06,339.62,202.06s272.56-80.88,338.5-200.04c.06.14.13.28.19.43,196-118.05,317.62-332.81,317.62-561.53,0-22.05-17.94-39.99-39.99-39.99ZM1402.42,1563.12c-.03.12-.07.24-.11.36-39.61,34.5-88.53,66.55-98.56,73.02-.32.19-.63.39-.95.58-.32.19-.6.42-.9.61h0s-7.81,11.55-7.81,11.55c-.25,0-.5.02-.75.02-.15,0-.3-.02-.45-.02-2.54,4.57-5.2,9.08-7.94,13.52l-.13.19v.02c-61.85,100.2-172.64,167.12-298.79,167.12-82.72,0-158.83-28.78-218.88-76.85.03.02.07.05.1.07l-3.35-2.71c-22.03-18.06-41.82-38.75-58.91-61.57-14.08-19.55-24.34-37.27-29.01-45.69-1.15-2.16-2.28-4.33-3.39-6.52-.42.04-.85.07-1.27.1-17.57-10.45-34.44-21.81-50.71-33.85-.44-.22-.88-.45-1.32-.67-37.97-29.36-70.45-61.4-70.45-61.4h0c-113.72-114.75-180.51-271.7-180.51-436.35,0-2.04,1.66-3.7,3.7-3.7h1230.32c2.04,0,3.7,1.66,3.7,3.7,0,175.51-75.91,342.25-203.62,458.46Z"/>
</svg>