<?xml version="1.0" encoding="UTF-8"?>
<svg id="Layer_1" xmlns="http://www.w3.org/2000/svg" version="1.1" viewBox="0 0 2000 2000">
  <!-- Generator: Adobe Illustrator 29.3.1, SVG Export Plug-In . SVG Version: 2.1.0 Build 151)  -->
  <defs>
    <style>
      .st0 {
        fill: #ea1f27;
      }
    </style>
  </defs>
  <path d="M457.29,953.8c0,6.56-2.82,10.83-8.47,12.81-4.58,1.52-16.63,2.29-36.15,2.29s-32.49-.77-41.19-2.29c-4.12-.76-6.83-1.56-8.12-2.4-1.3-.84-2.94-3.01-4.92-6.52-11.14-20.44-22.2-40.88-33.18-61.33-18.16-32.95-28.99-51.1-32.49-54.46-16.48,5.95-24.71,10.22-24.71,12.81,0,11.44.46,28.72,1.37,51.83.91,23.11,1.37,40.47,1.37,52.06,0,4.73-2.06,7.4-6.18,8.01-7.93,1.22-22.27,1.83-43.02,1.83s-32.95-.61-39.36-1.83c-4.43-.91-6.64-3.28-6.64-7.09,0-16.48.8-41.34,2.4-74.6,1.6-33.26,2.4-58.2,2.4-74.83,0-17.69-.77-44.28-2.29-79.75-1.53-35.47-2.29-62.05-2.29-79.75,0-3.35,1.6-5.03,4.81-5.03,4.73,0,11.86.23,21.4.69,9.53.46,16.67.69,21.4.69s12.13-.23,21.74-.69c9.61-.46,16.78-.69,21.51-.69,2.59,0,3.89,1.37,3.89,4.12,0,11.29-.57,28.34-1.72,51.14-1.14,22.81-1.72,39.85-1.72,51.14,0,13.12,3.58,19.68,10.75,19.68,18.15,0,32.27-4.96,42.33-14.87,7.47-7.32,15.02-20.67,22.65-40.05,4.88-14.79,12.89-36.61,24.03-65.44,1.68-3.81,5.11-5.72,10.3-5.72,3.97,0,9.95.23,17.96.69,8.01.46,13.99.69,17.96.69s10.26-.15,18.42-.46c8.16-.3,14.22-.46,18.19-.46,3.66,0,5.49,1.76,5.49,5.26,0,5.03-3.2,17.32-9.61,36.84-18.92,57.66-40.66,93.67-65.21,108.01-5.03,2.9-7.55,5.26-7.55,7.09,0-.15,14.07,22.73,42.22,68.65,28.15,45.92,42.22,73.22,42.22,81.92Z"/>
  <path d="M700.53,843.27c0-2.13,1.75-4.42,5.26-6.86,4.79-3.47,9.14-6.98,13.1-10.51-1.03-1.8-2.04-3.62-3.02-5.48-3.33-6.28-6.69-12.5-9.87-18.8-9.13-12.84-16.28-26.44-22.2-41.65-13.83-35.49-17-74.56-18.77-112.39-11.29-2.24-23.47-3.38-36.58-3.38-16.78,0-39.28.31-67.5.91-41.65.92-64.95,1.83-69.91,2.75-4.96.92-7.36,2.67-7.21,5.26l.23,3.2c2.9,36.15,4.35,86.49,4.35,151.02,0,16.93-.8,42.33-2.4,76.2-1.6,33.87-2.4,59.19-2.4,75.97,0,3.81,2.21,6.18,6.64,7.09,4.42.91,17.54,1.37,39.36,1.37,19.07,0,33.1-.31,42.1-.91,2.13-.15,4.27-.31,6.41-.46,1.37-.46,2.06-1.98,2.06-4.58,0-10.37-.96-25.86-2.86-46.45-1.91-20.59-2.86-36.08-2.86-46.45,0-7.78,1.14-11.67,3.43-11.67,17.56,0,25.79-.11,24.72-.34,9.23.79,15.21,4.02,17.84,9.72,12.66,29.75,21.97,52.25,27.92,67.5,4.42,11.75,7.78,20.6,10.07,26.55,1.22,2.6,2.29,4.12,3.2,4.58.46.31,2.36.69,5.72,1.14,7.17.91,20.74,1.37,40.73,1.37,23.34,0,37.91-.46,43.71-1.37,3.05-.46,4.58-1.22,4.58-2.29,0-3.96-9.31-25.17-27.92-63.61-18.61-38.44-27.92-57.59-27.92-57.43ZM610.14,798.88c-10.22,0-19.99-.69-29.29-2.06-4.88-.76-7.32-1.52-7.32-2.29,0-3.35-.08-8.47-.23-15.33-.15-6.86-.23-12.05-.23-15.56,0-24.71.46-39.66,1.37-44.85.91-4.42,8.62-6.64,23.11-6.64,20.14,0,34.93,2.75,44.39,8.24,12.2,7.17,18.31,20.06,18.31,38.67,0,26.55-16.7,39.82-50.11,39.82Z"/>
  <path d="M1538.13,645.57c-9.15,0-22.96.38-41.42,1.14-18.46.77-32.26,1.14-41.42,1.14-3.2,0-4.81,2.83-4.81,8.47,0,16.17.88,40.35,2.63,72.54,1.75,32.19,2.63,56.29,2.63,72.31,0,11.9-.99,17.85-2.98,17.85-2.75,0-6.03-2.36-9.84-7.09-15.41-20.29-26.93-35.7-34.55-46.22l-85.35-116.93c-3.81-5.18-6.64-7.78-8.47-7.78-3.46,0-7.91.42-13.32,1.26,1.22,19.62,1.02,39.39-3.02,58.25-3.65,33.91-13.38,67.13-29.06,97.8-7.81,15.28-17.59,29.78-28.65,43.05-.4,12.45-1,26.96-1.8,43.56-1.6,33.26-2.4,58.12-2.4,74.6,0,4.73,2.21,7.09,6.64,7.09h79.17c4.12,0,6.18-2.67,6.18-8.01,0-17.69-.5-44.24-1.49-79.63-.99-35.39-1.49-61.93-1.49-79.63,0-2.29.61-3.96,1.83-5.03,1.68.91,2.82,1.83,3.43,2.74,21.51,27.61,37.53,48.51,48.05,62.7,38.44,50.8,63.15,83.6,74.14,98.4,3.81,5.03,7.09,7.55,9.84,7.55,3.96,0,9.91.31,17.85.91,7.93.61,13.88.91,17.85.91,3.66,0,9.19-.15,16.59-.46,7.4-.31,12.93-.46,16.59-.46,4.42,0,6.64-2.06,6.64-6.18v-150.8c0-17.54.72-43.74,2.17-78.6,1.45-34.86,2.17-60.98,2.17-78.37,0-4.73-1.45-7.09-4.35-7.09Z"/>
  <path d="M1886.17,959.29c.3,4.12-1.83,6.18-6.41,6.18-2.9,0-11.25-1.68-25.06-5.03-13.81-3.35-22.31-5.64-25.51-6.86-31.89,12.51-62.47,18.76-91.76,18.76-47.14,0-85.81-15.71-116.02-47.14-29.9-30.97-44.85-70.09-44.85-117.39s14.49-88.48,43.48-120.36c29.9-32.95,68.72-49.43,116.47-49.43,23.19,0,45,4.43,65.44,13.27,22.12,9.76,39.51,23.49,52.17,41.19,2.59,3.66,3.89,6.26,3.89,7.78,0,4.88-6.83,15.83-20.48,32.84-13.65,17.01-22.46,25.51-26.43,25.51-.92,0-4.43-3.12-10.53-9.38-7.48-7.47-15.1-13.27-22.88-17.39-11.59-6.25-24.41-9.38-38.44-9.38-22.88,0-41.04,8.55-54.46,25.63-12.51,15.71-18.76,35.32-18.76,58.81,0,24.87,6.48,44.55,19.45,59.04,13.42,14.95,32.42,22.42,56.98,22.42,15.56,0,32.95-3.89,52.17-11.67-.46-5.03-1.83-17.85-4.12-38.44-1.98-15.87-2.98-28.68-2.98-38.44,0-2.89.99-4.65,2.98-5.26.76-.3,1.98-.46,3.66-.46,4.42,0,11.1.42,20.02,1.26,8.92.84,15.67,1.26,20.25,1.26,4.88,0,12.2-.34,21.97-1.03,9.76-.69,17.08-1.03,21.97-1.03,3.81,0,5.72,2.52,5.72,7.55,0,7.32-.42,18.38-1.26,33.18-.84,14.8-1.26,25.86-1.26,33.18,0,19.68,1.45,49.12,4.35,88.33l.23,2.52Z"/>
  <path d="M547.38,1091.77c0,4.54-2.5,6.81-7.49,6.81-8.63,0-42.8-1.7-102.5-5.11-1.36,57.44-2.04,97.51-2.04,120.21,0,26.79,1.07,67.09,3.23,120.89,2.16,53.81,3.24,94.11,3.24,120.89,0,4.32-1.02,7.04-3.06,8.17-.68.46-3.86,1.02-9.54,1.7-13.62,1.81-33.6,2.72-59.94,2.72-29.29,0-49.84-.91-61.64-2.72-6.36-1.13-9.53-4.65-9.53-10.56,0-26.79,1.13-66.97,3.41-120.55,2.27-53.58,3.41-93.76,3.41-120.55,0-17.71-.91-57.21-2.72-118.51-45.41,4.54-81.62,6.81-108.63,6.81-3.63,0-5.45-1.13-5.45-3.41,0-2.95,1.59-11.69,4.77-26.22,3.63-15.89,5.67-25.54,6.13-28.95.68-10.67,1.47-21.34,2.38-32.01,1.59-17.03,4.31-25.54,8.17-25.54.45,0,2.04.12,4.77.34,36.78,4.77,91.15,7.15,163.12,7.15,20.43,0,58.12-2.16,113.06-6.47,29.51-2.27,44.38-3.41,44.61-3.41,4.54,0,7.15.29,7.83.85.68.57,1.13,2.78,1.36,6.64,0,6.13-.23,14.64-.68,25.54-.46,12.04-.68,20.55-.68,25.54,0,5.68.73,14.02,2.21,25.03,1.47,11.01,2.21,19.24,2.21,24.69Z"/>
  <path d="M1033.67,1232.41c0-26.33,1.07-65.84,3.24-118.51,2.02-49.42,3.1-87.15,3.22-113.19-14.82,4.95-30.3,7.67-45.47,7.67-2.5,0-4.97-.07-7.43-.2-2.27.12-4.53.2-6.79.2-12.7,0-24.93-1.73-36.64-4.92-14.13-2.72-27.55-7.57-40.16-14.19-2.06,1.68-3.11,4.61-3.11,8.84,0,16.58.79,41.38,2.38,74.41,1.59,33.03,2.38,57.72,2.38,74.07,0,7.95-2.72,12.6-8.17,13.96-7.72,1.82-35.87,2.72-84.46,2.72-52.22,0-81.28-.9-87.18-2.72-4.32-1.36-6.47-6.01-6.47-13.96,0-17.03,1.24-42.51,3.74-76.45,2.5-33.94,3.75-59.42,3.75-76.45,0-4.09-1.93-6.13-5.79-6.13-7.27,0-18.22.34-32.86,1.02-14.64.68-25.6,1.02-32.86,1.02s-17.66-.34-31.84-1.02c-14.19-.68-24.81-1.02-31.84-1.02-4.77,0-7.15,2.5-7.15,7.49,0,26.34,1.13,65.9,3.41,118.68,2.27,52.78,3.41,92.34,3.41,118.68,0,24.75-1.19,61.87-3.58,111.36-2.38,49.5-3.58,86.5-3.58,111.02,0,5.91,3.29,9.42,9.88,10.56,8.4,1.36,27.92,2.04,58.57,2.04,35.42,0,56.75-.68,64.02-2.04,6.13-1.13,9.19-5.11,9.19-11.92,0-17.71-.57-44.21-1.7-79.52-1.14-35.3-1.7-61.81-1.7-79.52,0-9.08,2.5-14.19,7.49-15.32,7.94-1.81,35.64-2.72,83.09-2.72s74.69.91,82.41,2.72c4.99,1.36,7.49,6.47,7.49,15.32,0,17.94-.85,44.9-2.55,80.88-1.7,35.99-2.56,62.95-2.56,80.88,0,4.77,3.12,7.83,9.37,9.19,6.24,1.36,27.18,2.04,62.83,2.04,25.2,0,44.72-.68,58.57-2.04,5.45-.45,8.63-1.02,9.54-1.7,2.04-1.13,3.06-4.09,3.06-8.85,0-24.52-1.19-61.52-3.58-111.02-2.38-49.49-3.58-86.61-3.58-111.36Z"/>
  <path d="M1552.66,1456.83c0,4.09-2.84,6.93-8.51,8.51-6.81,1.81-27.92,2.72-63.34,2.72-32.47,0-53.35-.91-62.66-2.72-7.72-1.59-12.6-6.69-14.64-15.32-7.72-32.69-13.74-50.17-18.05-52.44-3.63-1.59-34.05-2.38-91.27-2.38-38.6,0-59.14,1.02-61.64,3.06-3.86,3.63-8.17,15.78-12.94,36.44-4.32,18.85-9.54,29.06-15.66,30.65-7.72,1.81-33.6,2.72-77.64,2.72-34.73,0-52.1-3.29-52.1-9.88,0-5.9,25.65-78.44,76.96-217.61,55.62-150.52,85.82-233.27,90.58-248.26,2.72-8.63,5.9-12.94,9.54-12.94,6.13,0,15.61.57,28.43,1.7,12.82,1.14,22.42,1.7,28.78,1.7s15.15-.39,27.07-1.19c11.92-.79,20.83-1.19,26.73-1.19,4.31,0,8.28,3.75,11.92,11.24,11.12,23.84,43.59,105.57,97.39,245.19,54.03,140.53,81.05,213.86,81.05,219.99ZM1311.21,1146.6c-4.77,9.99-12.83,31.67-24.18,65.04-12.26,35.42-18.39,56.19-18.39,62.32,0,4.09,6.81,6.36,20.43,6.81,7.03.46,18.61.68,34.73.68,14.98,0,23.27-1.81,24.86-5.45.45-1.13.68-2.72.68-4.77,0-7.49-5.23-28.15-15.67-61.98-10.22-32.69-17.71-53.58-22.48-62.66Z"/>
  <path d="M1626.64,1040.76c0,4.33.52,10.61,1.56,18.83,1.04,8.23,1.56,14.41,1.56,18.57,0,3.29-2.51,4.93-7.53,4.93-4.33,0-10.78-.22-19.35-.65-8.57-.43-15.02-.65-19.35-.65-3.81,0-9.44.26-16.88.78-7.44.52-13.07.78-16.88.78-4.5,0-6.75-2.16-6.75-6.49,0-3.64.26-9.09.78-16.36.52-7.27.78-12.73.78-16.36,0-4.68-.35-11.64-1.04-20.91-.69-9.26-1.04-16.23-1.04-20.91,0-5.02,2.86-7.53,8.57-7.53,7.45,0,18.61.13,33.51.39,14.89.26,26.01.39,33.38.39s11.04,2.43,11.04,7.27c0,4.16-.39,10.48-1.17,18.96-.78,8.49-1.17,14.81-1.17,18.96ZM1697.8,1269.59c0,20.43.52,51.17,1.56,92.21,1.04,41.04,1.56,71.78,1.56,92.21,0,3.47-.78,5.63-2.34,6.49-.35.18-2.6.52-6.75,1.04-11.26,1.38-26.32,2.08-45.19,2.08-25.28,0-41.39-.69-48.31-2.08-5.02-1.04-7.53-3.72-7.53-8.05,0,2.77.78-12.47,2.34-45.71,3.12-70.13,4.68-116.19,4.68-138.18,0-18.53-.61-46.32-1.82-83.37-1.21-37.05-1.82-64.84-1.82-83.37,0-3.81,1.99-5.71,5.97-5.71,5.37,0,13.46.26,24.29.78,10.82.52,18.92.78,24.28.78s13.29-.26,23.77-.78c10.47-.52,18.4-.78,23.77-.78,5.02,0,7.53,1.91,7.53,5.71,0,18.53-1,46.32-2.99,83.37-1.99,37.06-2.99,64.85-2.99,83.37ZM1755.2,1039.72c0,4.16.65,10.3,1.95,18.44,1.3,8.14,1.95,14.2,1.95,18.18,0,2.77-3.47,4.59-10.39,5.45-4.85.69-11.6.95-20.26.78-13.34-.52-18.62-.78-15.84-.78-3.47,0-8.66.17-15.58.52-6.93.35-12.12.52-15.58.52-6.41,0-9.61-3.29-9.61-9.87,0-3.81.17-9.35.52-16.62.35-7.27.52-12.81.52-16.62s-.22-10.08-.65-18.31c-.44-8.22-.65-14.33-.65-18.31,0-6.06,2.51-9.09,7.53-9.09,4.33,0,10.82.35,19.48,1.04,8.66.69,15.15,1.04,19.48,1.04,3.46,0,8.7-.13,15.71-.39,7.01-.26,12.25-.39,15.71-.39,5.89,0,8.83,1.91,8.83,5.71,0,4.33-.52,10.78-1.56,19.35-1.04,8.57-1.56,15.02-1.56,19.35Z"/>
  <g>
    <path class="st0" d="M145.7,1543.44v-7.31h43.87v7.31h-17.69v49h-8.52v-49h-17.66Z"/>
    <path class="st0" d="M206.85,1567.36v25.08h-8.28v-56.31h8.17v20.95h.53c1-2.27,2.52-4.08,4.57-5.42,2.05-1.34,4.72-2.01,8.03-2.01,2.92,0,5.47.6,7.65,1.79,2.19,1.19,3.88,2.96,5.09,5.32s1.81,5.29,1.81,8.81v26.86h-8.28v-25.88c0-3.1-.8-5.5-2.41-7.22s-3.84-2.57-6.7-2.57c-1.96,0-3.7.41-5.24,1.24-1.54.83-2.75,2.03-3.63,3.62-.88,1.59-1.31,3.5-1.31,5.73Z"/>
    <path class="st0" d="M257.86,1593.37c-2.69,0-5.13-.5-7.31-1.5-2.18-1-3.9-2.45-5.16-4.36-1.26-1.91-1.9-4.24-1.9-7.01,0-2.38.46-4.34,1.38-5.88.92-1.54,2.17-2.76,3.74-3.66,1.57-.9,3.32-1.58,5.26-2.03s3.91-.81,5.92-1.04c2.55-.29,4.61-.54,6.2-.73,1.59-.19,2.74-.51,3.46-.95.72-.44,1.08-1.15,1.08-2.14v-.19c0-2.4-.68-4.26-2.03-5.58-1.36-1.32-3.37-1.98-6.05-1.98s-4.98.61-6.57,1.83c-1.6,1.22-2.7,2.57-3.31,4.06l-7.78-1.76c.92-2.57,2.27-4.64,4.05-6.23,1.78-1.59,3.83-2.74,6.16-3.46,2.33-.72,4.77-1.09,7.33-1.09,1.7,0,3.5.2,5.41.59,1.91.39,3.7,1.11,5.37,2.16s3.04,2.54,4.11,4.47c1.07,1.93,1.61,4.44,1.61,7.52v28.05h-8.08v-5.77h-.33c-.54,1.06-1.34,2.11-2.41,3.13-1.07,1.03-2.45,1.88-4.12,2.56-1.68.68-3.69,1.02-6.03,1.02ZM259.66,1586.78c2.29,0,4.25-.45,5.88-1.35,1.63-.9,2.88-2.08,3.74-3.53.86-1.46,1.29-3.02,1.29-4.69v-5.44c-.3.29-.86.56-1.7.81-.84.25-1.79.46-2.86.63-1.07.17-2.11.33-3.13.47-1.02.14-1.86.25-2.55.34-1.61.2-3.07.54-4.39,1.02-1.32.48-2.37,1.16-3.16,2.05-.78.89-1.18,2.07-1.18,3.53,0,2.04.76,3.57,2.27,4.61,1.51,1.04,3.44,1.55,5.78,1.55Z"/>
    <path class="st0" d="M285.89,1543.58c-1.29,0-2.43-.48-3.4-1.44-.98-.96-1.47-2.08-1.47-3.34,0-1.38.49-2.52,1.47-3.44.98-.92,2.11-1.38,3.4-1.38,1.38,0,2.54.46,3.47,1.38.93.92,1.4,2.06,1.4,3.44,0,1.26-.47,2.38-1.4,3.34-.93.96-2.09,1.44-3.47,1.44ZM289.85,1592.44v-42.24h8.28v42.24h-8.28ZM302.17,1543.58c-1.29,0-2.43-.48-3.4-1.44-.98-.96-1.47-2.08-1.47-3.34,0-1.38.49-2.52,1.47-3.44s2.11-1.38,3.4-1.38c1.38,0,2.54.46,3.47,1.38s1.4,2.06,1.4,3.44c0,1.26-.47,2.38-1.4,3.34-.93.96-2.09,1.44-3.47,1.44Z"/>
    <path d="M320.63,1536.12v56.31h-8.28v-56.31h8.28Z"/>
    <path d="M344.13,1593.37c-2.69,0-5.13-.5-7.31-1.5-2.18-1-3.9-2.45-5.16-4.36-1.26-1.91-1.9-4.24-1.9-7.01,0-2.38.46-4.34,1.38-5.88.92-1.54,2.17-2.76,3.74-3.66,1.57-.9,3.32-1.58,5.26-2.03s3.91-.81,5.92-1.04c2.55-.29,4.61-.54,6.2-.73,1.59-.19,2.74-.51,3.46-.95.72-.44,1.08-1.15,1.08-2.14v-.19c0-2.4-.68-4.26-2.03-5.58-1.36-1.32-3.37-1.98-6.05-1.98s-4.98.61-6.57,1.83c-1.6,1.22-2.7,2.57-3.31,4.06l-7.78-1.76c.92-2.57,2.27-4.64,4.05-6.23,1.78-1.59,3.83-2.74,6.16-3.46,2.33-.72,4.77-1.09,7.33-1.09,1.7,0,3.5.2,5.41.59,1.91.39,3.7,1.11,5.37,2.16s3.04,2.54,4.11,4.47c1.07,1.93,1.61,4.44,1.61,7.52v28.05h-8.08v-5.77h-.33c-.54,1.06-1.34,2.11-2.41,3.13-1.07,1.03-2.45,1.88-4.12,2.56-1.68.68-3.69,1.02-6.03,1.02ZM345.93,1586.78c2.29,0,4.25-.45,5.88-1.35,1.63-.9,2.88-2.08,3.74-3.53.86-1.46,1.29-3.02,1.29-4.69v-5.44c-.3.29-.86.56-1.7.81-.84.25-1.79.46-2.86.63-1.07.17-2.11.33-3.13.47-1.02.14-1.86.25-2.55.34-1.61.2-3.07.54-4.39,1.02-1.32.48-2.37,1.16-3.16,2.05-.78.89-1.18,2.07-1.18,3.53,0,2.04.76,3.57,2.27,4.61,1.51,1.04,3.44,1.55,5.78,1.55Z"/>
    <path d="M384.4,1567.36v25.08h-8.28v-42.24h7.94v6.87h.53c.98-2.24,2.51-4.03,4.61-5.39,2.09-1.36,4.74-2.03,7.93-2.03,2.9,0,5.43.6,7.61,1.8,2.18,1.2,3.87,2.98,5.06,5.35,1.2,2.37,1.8,5.29,1.8,8.77v26.86h-8.28v-25.88c0-3.06-.8-5.46-2.41-7.19s-3.81-2.6-6.62-2.6c-1.92,0-3.62.41-5.11,1.24-1.49.83-2.66,2.03-3.52,3.62-.86,1.59-1.29,3.5-1.29,5.73Z"/>
    <path d="M438.59,1593.26c-3.43,0-6.49-.88-9.18-2.63-2.68-1.75-4.79-4.25-6.31-7.51-1.52-3.25-2.28-7.16-2.28-11.73s.77-8.47,2.31-11.71c1.54-3.25,3.66-5.73,6.35-7.45,2.69-1.72,5.75-2.58,9.16-2.58,2.64,0,4.76.44,6.38,1.31,1.61.87,2.87,1.88,3.76,3.04.89,1.16,1.59,2.17,2.09,3.05h.5v-20.93h8.28v56.31h-8.08v-6.57h-.69c-.5.9-1.21,1.92-2.15,3.08s-2.21,2.16-3.83,3.02-3.73,1.29-6.31,1.29ZM440.42,1586.25c2.38,0,4.4-.63,6.05-1.88s2.91-3,3.76-5.24,1.29-4.84,1.29-7.81-.42-5.5-1.27-7.7c-.85-2.2-2.09-3.91-3.74-5.14-1.64-1.23-3.67-1.84-6.09-1.84s-4.57.64-6.23,1.92c-1.66,1.28-2.91,3.03-3.75,5.25-.84,2.22-1.26,4.72-1.26,7.51s.42,5.36,1.27,7.62c.85,2.25,2.11,4.04,3.78,5.35,1.67,1.31,3.73,1.97,6.19,1.97Z"/>
    <path d="M483.82,1593.37c-2.69,0-5.13-.5-7.31-1.5-2.18-1-3.9-2.45-5.16-4.36-1.26-1.91-1.9-4.24-1.9-7.01,0-2.38.46-4.34,1.38-5.88.92-1.54,2.17-2.76,3.74-3.66,1.57-.9,3.32-1.58,5.26-2.03s3.91-.81,5.92-1.04c2.55-.29,4.61-.54,6.2-.73,1.59-.19,2.74-.51,3.46-.95.72-.44,1.08-1.15,1.08-2.14v-.19c0-2.4-.68-4.26-2.03-5.58-1.36-1.32-3.37-1.98-6.05-1.98s-4.98.61-6.57,1.83c-1.6,1.22-2.7,2.57-3.31,4.06l-7.78-1.76c.92-2.57,2.27-4.64,4.05-6.23,1.78-1.59,3.83-2.74,6.16-3.46,2.33-.72,4.77-1.09,7.33-1.09,1.7,0,3.5.2,5.41.59,1.91.39,3.7,1.11,5.37,2.16s3.04,2.54,4.11,4.47c1.07,1.93,1.61,4.44,1.61,7.52v28.05h-8.08v-5.77h-.33c-.54,1.06-1.34,2.11-2.41,3.13-1.07,1.03-2.45,1.88-4.12,2.56-1.68.68-3.69,1.02-6.03,1.02ZM485.62,1586.78c2.29,0,4.25-.45,5.88-1.35,1.63-.9,2.88-2.08,3.74-3.53.86-1.46,1.29-3.02,1.29-4.69v-5.44c-.3.29-.86.56-1.7.81-.84.25-1.79.46-2.86.63-1.07.17-2.11.33-3.13.47-1.02.14-1.86.25-2.55.34-1.61.2-3.07.54-4.39,1.02-1.32.48-2.37,1.16-3.16,2.05-.78.89-1.18,2.07-1.18,3.53,0,2.04.76,3.57,2.27,4.61,1.51,1.04,3.44,1.55,5.78,1.55Z"/>
    <path d="M520,1543.69c-1.44,0-2.67-.48-3.69-1.44-1.02-.96-1.54-2.11-1.54-3.45s.51-2.52,1.54-3.48c1.02-.96,2.26-1.44,3.69-1.44s2.67.48,3.69,1.44c1.02.96,1.54,2.11,1.54,3.45s-.51,2.52-1.54,3.48c-1.02.96-2.26,1.44-3.69,1.44ZM515.82,1592.44v-42.24h8.28v42.24h-8.28Z"/>
    <path d="M567.08,1560.52l-7.5,1.32c-.31-.95-.81-1.86-1.48-2.72-.67-.86-1.58-1.57-2.73-2.12-1.14-.55-2.57-.83-4.29-.83-2.34,0-4.3.52-5.87,1.55-1.57,1.04-2.35,2.37-2.35,4,0,1.41.53,2.55,1.58,3.41,1.05.86,2.75,1.57,5.09,2.12l6.75,1.54c3.91.9,6.83,2.28,8.75,4.15,1.92,1.87,2.88,4.3,2.88,7.29,0,2.53-.73,4.78-2.2,6.75s-3.51,3.52-6.12,4.63c-2.61,1.12-5.63,1.68-9.06,1.68-4.76,0-8.65-1.01-11.65-3.04-3.01-2.03-4.85-4.91-5.54-8.65l8-1.21c.5,2.07,1.52,3.63,3.07,4.69,1.55,1.05,3.57,1.58,6.06,1.58,2.71,0,4.88-.56,6.5-1.69,1.62-1.13,2.44-2.51,2.44-4.14,0-1.32-.49-2.43-1.48-3.33s-2.5-1.58-4.53-2.04l-7.2-1.57c-3.97-.9-6.9-2.33-8.79-4.29-1.89-1.96-2.84-4.45-2.84-7.45,0-2.49.7-4.67,2.1-6.54,1.4-1.87,3.34-3.33,5.81-4.39,2.47-1.05,5.3-1.58,8.5-1.58,4.59,0,8.21.99,10.85,2.96,2.64,1.97,4.38,4.61,5.23,7.91Z"/>
    <path d="M595.31,1593.29c-4.19,0-7.79-.89-10.81-2.68-3.02-1.79-5.34-4.31-6.98-7.56-1.63-3.25-2.45-7.07-2.45-11.45s.82-8.14,2.45-11.44c1.63-3.3,3.92-5.88,6.86-7.73,2.94-1.85,6.39-2.78,10.34-2.78,2.4,0,4.72.39,6.97,1.18,2.25.79,4.27,2.03,6.06,3.71,1.79,1.69,3.2,3.87,4.23,6.56,1.03,2.69,1.55,5.94,1.55,9.78v2.91h-33.79v-6.16h25.69c0-2.16-.44-4.08-1.33-5.76-.89-1.68-2.13-3-3.72-3.97-1.6-.97-3.46-1.46-5.6-1.46-2.33,0-4.35.56-6.08,1.69-1.73,1.13-3.05,2.59-3.99,4.4-.93,1.81-1.4,3.76-1.4,5.87v4.81c0,2.82.5,5.22,1.51,7.2,1.01,1.98,2.41,3.49,4.22,4.52,1.81,1.04,3.92,1.55,6.34,1.55,1.57,0,3-.22,4.29-.67s2.41-1.12,3.35-2.02,1.66-2.01,2.16-3.33l7.83,1.4c-.63,2.29-1.75,4.29-3.36,6.01-1.61,1.71-3.64,3.04-6.06,3.99-2.43.94-5.19,1.42-8.29,1.42Z"/>
    <path d="M648.86,1573.27c-1.51,0-2.81-.54-3.9-1.61-1.09-1.07-1.63-2.37-1.63-3.89s.54-2.79,1.63-3.86c1.09-1.07,2.39-1.61,3.9-1.61s2.81.54,3.9,1.61c1.09,1.07,1.63,2.36,1.63,3.86,0,1.01-.25,1.93-.76,2.76-.51.83-1.18,1.5-2.01,1.99s-1.75.74-2.77.74Z"/>
    <path class="st0" d="M733.86,1554.44h-8.64c-.33-1.83-.95-3.45-1.85-4.84-.9-1.39-2.01-2.58-3.32-3.55-1.31-.97-2.77-1.71-4.39-2.2-1.62-.49-3.33-.74-5.13-.74-3.27,0-6.19.82-8.76,2.45-2.57,1.63-4.6,4.02-6.09,7.18-1.49,3.15-2.23,7-2.23,11.55s.74,8.45,2.23,11.6c1.49,3.15,3.52,5.54,6.1,7.15,2.58,1.61,5.49,2.42,8.72,2.42,1.79,0,3.49-.24,5.11-.73,1.61-.49,3.08-1.21,4.39-2.16,1.31-.95,2.42-2.12,3.33-3.51.91-1.38,1.55-2.97,1.9-4.77l8.64.03c-.46,2.77-1.35,5.31-2.67,7.63-1.32,2.32-3.01,4.32-5.07,5.99-2.06,1.68-4.41,2.97-7.04,3.89-2.64.92-5.52,1.37-8.64,1.37-4.91,0-9.28-1.16-13.12-3.48-3.84-2.32-6.86-5.64-9.06-9.97-2.21-4.33-3.31-9.49-3.31-15.48s1.11-11.18,3.32-15.49c2.21-4.32,5.24-7.63,9.08-9.95,3.84-2.32,8.2-3.48,13.09-3.48,3.01,0,5.82.43,8.43,1.28,2.61.85,4.96,2.1,7.04,3.74,2.08,1.64,3.81,3.64,5.18,5.99,1.37,2.36,2.29,5.05,2.77,8.07Z"/>
    <path class="st0" d="M755.81,1593.37c-2.69,0-5.13-.5-7.31-1.5-2.18-1-3.9-2.45-5.16-4.36-1.26-1.91-1.9-4.24-1.9-7.01,0-2.38.46-4.34,1.38-5.88.92-1.54,2.17-2.76,3.74-3.66,1.57-.9,3.32-1.58,5.26-2.03s3.91-.81,5.92-1.04c2.55-.29,4.61-.54,6.2-.73,1.59-.19,2.74-.51,3.46-.95.72-.44,1.08-1.15,1.08-2.14v-.19c0-2.4-.68-4.26-2.03-5.58-1.36-1.32-3.37-1.98-6.05-1.98s-4.98.61-6.57,1.83c-1.6,1.22-2.7,2.57-3.31,4.06l-7.78-1.76c.92-2.57,2.27-4.64,4.05-6.23,1.78-1.59,3.83-2.74,6.16-3.46,2.33-.72,4.77-1.09,7.33-1.09,1.7,0,3.5.2,5.41.59,1.91.39,3.7,1.11,5.37,2.16s3.04,2.54,4.11,4.47c1.07,1.93,1.61,4.44,1.61,7.52v28.05h-8.08v-5.77h-.33c-.54,1.06-1.34,2.11-2.41,3.13-1.07,1.03-2.45,1.88-4.12,2.56-1.68.68-3.69,1.02-6.03,1.02ZM757.61,1586.78c2.29,0,4.25-.45,5.88-1.35,1.63-.9,2.88-2.08,3.74-3.53.86-1.46,1.29-3.02,1.29-4.69v-5.44c-.3.29-.86.56-1.7.81-.84.25-1.79.46-2.86.63-1.07.17-2.11.33-3.13.47-1.02.14-1.86.25-2.55.34-1.61.2-3.07.54-4.39,1.02-1.32.48-2.37,1.16-3.16,2.05-.78.89-1.18,2.07-1.18,3.53,0,2.04.76,3.57,2.27,4.61,1.51,1.04,3.44,1.55,5.78,1.55Z"/>
    <path class="st0" d="M787.81,1592.44v-42.24h7.94v6.87h.53c.89-2.33,2.33-4.15,4.35-5.46,2.01-1.31,4.42-1.97,7.22-1.97s5.23.66,7.15,1.98c1.93,1.32,3.35,3.13,4.28,5.44h.44c1.01-2.25,2.63-4.06,4.84-5.4s4.85-2.02,7.92-2.02c3.86,0,7.01,1.2,9.45,3.6,2.44,2.4,3.67,6.02,3.67,10.86v28.32h-8.28v-27.55c0-2.86-.78-4.93-2.35-6.21s-3.44-1.92-5.62-1.92c-2.69,0-4.79.82-6.28,2.46s-2.24,3.74-2.24,6.31v26.92h-8.25v-28.07c0-2.29-.72-4.13-2.16-5.53-1.44-1.39-3.31-2.09-5.62-2.09-1.57,0-3.01.41-4.33,1.22-1.32.82-2.38,1.95-3.18,3.4-.8,1.45-1.2,3.13-1.2,5.03v26.04h-8.28Z"/>
    <path class="st0" d="M857.34,1592.44v-56.31h8.28v20.93h.5c.48-.88,1.17-1.9,2.08-3.05.9-1.15,2.16-2.17,3.76-3.04,1.6-.87,3.73-1.31,6.37-1.31,3.43,0,6.49.86,9.19,2.58,2.69,1.72,4.81,4.21,6.35,7.45,1.54,3.24,2.31,7.15,2.31,11.71s-.77,8.47-2.3,11.73c-1.53,3.25-3.64,5.76-6.31,7.51-2.68,1.75-5.73,2.63-9.16,2.63-2.58,0-4.69-.43-6.32-1.29-1.63-.86-2.91-1.87-3.83-3.02-.92-1.16-1.63-2.18-2.13-3.08h-.69v6.57h-8.08ZM865.45,1571.32c0,2.97.43,5.57,1.3,7.81.87,2.24,2.12,3.98,3.76,5.24,1.64,1.26,3.65,1.88,6.03,1.88s4.54-.66,6.2-1.97c1.66-1.31,2.92-3.09,3.78-5.35s1.29-4.79,1.29-7.62-.42-5.29-1.26-7.51c-.84-2.22-2.09-3.97-3.76-5.25-1.67-1.28-3.75-1.92-6.24-1.92s-4.42.62-6.08,1.84c-1.65,1.23-2.9,2.94-3.75,5.14-.85,2.2-1.27,4.77-1.27,7.7Z"/>
    <path class="st0" d="M923.35,1593.29c-3.99,0-7.46-.91-10.44-2.72-2.97-1.81-5.28-4.35-6.92-7.62-1.64-3.26-2.46-7.08-2.46-11.44s.82-8.21,2.46-11.49c1.64-3.28,3.95-5.83,6.92-7.64s6.45-2.72,10.44-2.72,7.46.91,10.43,2.72c2.97,1.81,5.28,4.36,6.92,7.64,1.64,3.28,2.46,7.11,2.46,11.49s-.82,8.18-2.46,11.44c-1.64,3.26-3.95,5.8-6.92,7.62-2.97,1.82-6.45,2.72-10.43,2.72ZM923.38,1586.39c2.58,0,4.72-.68,6.42-2.03s2.96-3.16,3.78-5.42c.82-2.25,1.23-4.74,1.23-7.45s-.41-5.17-1.23-7.44c-.82-2.26-2.08-4.08-3.78-5.46-1.7-1.38-3.84-2.06-6.42-2.06s-4.76.69-6.46,2.06c-1.71,1.37-2.97,3.19-3.79,5.46-.82,2.26-1.23,4.74-1.23,7.44s.41,5.2,1.23,7.45c.82,2.25,2.08,4.06,3.79,5.42s3.86,2.03,6.46,2.03Z"/>
    <path class="st0" d="M968.3,1593.26c-3.43,0-6.49-.88-9.18-2.63-2.68-1.75-4.79-4.25-6.31-7.51-1.52-3.25-2.28-7.16-2.28-11.73s.77-8.47,2.31-11.71c1.54-3.25,3.66-5.73,6.35-7.45,2.69-1.72,5.75-2.58,9.16-2.58,2.64,0,4.76.44,6.38,1.31,1.61.87,2.87,1.88,3.76,3.04.89,1.16,1.59,2.17,2.09,3.05h.5v-20.93h8.28v56.31h-8.08v-6.57h-.69c-.5.9-1.21,1.92-2.15,3.08s-2.21,2.16-3.83,3.02-3.73,1.29-6.31,1.29ZM970.12,1586.25c2.38,0,4.4-.63,6.05-1.88s2.91-3,3.76-5.24,1.29-4.84,1.29-7.81-.42-5.5-1.27-7.7c-.85-2.2-2.09-3.91-3.74-5.14-1.64-1.23-3.67-1.84-6.09-1.84s-4.57.64-6.23,1.92c-1.66,1.28-2.91,3.03-3.75,5.25-.84,2.22-1.26,4.72-1.26,7.51s.42,5.36,1.27,7.62c.85,2.25,2.11,4.04,3.78,5.35,1.67,1.31,3.73,1.97,6.19,1.97Z"/>
    <path d="M1018.98,1609.16c-3.38,0-6.28-.44-8.71-1.32-2.43-.88-4.41-2.04-5.94-3.49-1.53-1.45-2.67-3.03-3.43-4.76l7.11-2.92c.5.81,1.17,1.66,2.01,2.57.84.91,1.98,1.68,3.43,2.32s3.32.96,5.61.96c3.14,0,5.73-.76,7.78-2.27,2.05-1.51,3.07-3.92,3.07-7.22v-8.3h-.53c-.5.9-1.21,1.9-2.14,3-.93,1.1-2.21,2.05-3.83,2.86-1.62.81-3.74,1.21-6.34,1.21-3.36,0-6.38-.78-9.06-2.35s-4.81-3.89-6.37-6.96c-1.56-3.07-2.34-6.85-2.34-11.34s.77-8.34,2.31-11.55c1.54-3.21,3.66-5.67,6.35-7.38,2.69-1.71,5.75-2.57,9.16-2.57,2.64,0,4.77.44,6.39,1.31,1.62.87,2.89,1.88,3.81,3.04.91,1.16,1.62,2.17,2.12,3.05h.61v-6.85h8.11v43.17c0,3.63-.85,6.61-2.55,8.94s-3.99,4.05-6.88,5.17-6.14,1.68-9.76,1.68ZM1018.89,1584.99c2.38,0,4.4-.55,6.05-1.66s2.91-2.7,3.76-4.78c.86-2.08,1.29-4.58,1.29-7.49s-.42-5.34-1.27-7.51-2.09-3.85-3.74-5.07c-1.64-1.22-3.67-1.83-6.09-1.83s-4.57.64-6.23,1.91c-1.66,1.27-2.91,3-3.75,5.18s-1.26,4.62-1.26,7.31.42,5.2,1.27,7.29,2.11,3.72,3.78,4.89c1.67,1.17,3.73,1.76,6.19,1.76Z"/>
    <path d="M1053.44,1543.69c-1.44,0-2.67-.48-3.7-1.44-1.02-.96-1.54-2.11-1.54-3.45s.51-2.52,1.54-3.48c1.02-.96,2.26-1.44,3.7-1.44s2.67.48,3.69,1.44c1.02.96,1.54,2.11,1.54,3.45s-.51,2.52-1.54,3.48c-1.02.96-2.26,1.44-3.69,1.44ZM1049.26,1592.44v-42.24h8.28v42.24h-8.28Z"/>
    <path d="M1086.98,1593.29c-4.19,0-7.79-.89-10.81-2.68-3.02-1.79-5.34-4.31-6.98-7.56-1.63-3.25-2.45-7.07-2.45-11.45s.82-8.14,2.45-11.44c1.63-3.3,3.92-5.88,6.86-7.73,2.94-1.85,6.39-2.78,10.34-2.78,2.4,0,4.72.39,6.98,1.18,2.25.79,4.27,2.03,6.06,3.71,1.79,1.69,3.2,3.87,4.23,6.56,1.03,2.69,1.55,5.94,1.55,9.78v2.91h-33.79v-6.16h25.69c0-2.16-.44-4.08-1.33-5.76-.89-1.68-2.13-3-3.72-3.97s-3.46-1.46-5.6-1.46c-2.33,0-4.35.56-6.08,1.69-1.73,1.13-3.05,2.59-3.99,4.4-.93,1.81-1.4,3.76-1.4,5.87v4.81c0,2.82.5,5.22,1.51,7.2,1,1.98,2.41,3.49,4.22,4.52,1.81,1.04,3.92,1.55,6.34,1.55,1.57,0,3-.22,4.29-.67,1.29-.45,2.41-1.12,3.35-2.02s1.66-2.01,2.16-3.33l7.83,1.4c-.63,2.29-1.75,4.29-3.36,6.01-1.62,1.71-3.64,3.04-6.06,3.99-2.43.94-5.19,1.42-8.29,1.42Z"/>
    <path d="M1122.71,1567.36v25.08h-8.28v-42.24h7.94v6.87h.53c.98-2.24,2.51-4.03,4.61-5.39,2.09-1.36,4.74-2.03,7.93-2.03,2.9,0,5.43.6,7.61,1.8,2.18,1.2,3.87,2.98,5.06,5.35,1.2,2.37,1.8,5.29,1.8,8.77v26.86h-8.28v-25.88c0-3.06-.8-5.46-2.41-7.19-1.61-1.73-3.81-2.6-6.62-2.6-1.92,0-3.62.41-5.11,1.24-1.49.83-2.66,2.03-3.52,3.62-.86,1.59-1.29,3.5-1.29,5.73Z"/>
    <path d="M1169.27,1567.36v25.08h-8.28v-42.24h7.94v6.87h.53c.98-2.24,2.51-4.03,4.61-5.39,2.09-1.36,4.74-2.03,7.93-2.03,2.9,0,5.43.6,7.61,1.8,2.18,1.2,3.87,2.98,5.06,5.35,1.2,2.37,1.8,5.29,1.8,8.77v26.86h-8.28v-25.88c0-3.06-.8-5.46-2.41-7.19-1.61-1.73-3.81-2.6-6.62-2.6-1.92,0-3.62.41-5.11,1.24-1.49.83-2.66,2.03-3.52,3.62-.86,1.59-1.29,3.5-1.29,5.73Z"/>
    <path d="M1225.87,1593.29c-4.19,0-7.79-.89-10.81-2.68-3.02-1.79-5.34-4.31-6.98-7.56-1.63-3.25-2.45-7.07-2.45-11.45s.82-8.14,2.45-11.44c1.63-3.3,3.92-5.88,6.86-7.73,2.94-1.85,6.39-2.78,10.34-2.78,2.4,0,4.72.39,6.98,1.18,2.25.79,4.27,2.03,6.06,3.71,1.79,1.69,3.2,3.87,4.23,6.56,1.03,2.69,1.55,5.94,1.55,9.78v2.91h-33.79v-6.16h25.69c0-2.16-.44-4.08-1.33-5.76-.89-1.68-2.13-3-3.72-3.97s-3.46-1.46-5.6-1.46c-2.33,0-4.35.56-6.08,1.69-1.73,1.13-3.05,2.59-3.99,4.4-.93,1.81-1.4,3.76-1.4,5.87v4.81c0,2.82.5,5.22,1.51,7.2,1,1.98,2.41,3.49,4.22,4.52,1.81,1.04,3.92,1.55,6.34,1.55,1.57,0,3-.22,4.29-.67,1.29-.45,2.41-1.12,3.35-2.02s1.66-2.01,2.16-3.33l7.83,1.4c-.63,2.29-1.75,4.29-3.36,6.01-1.62,1.71-3.64,3.04-6.06,3.99-2.43.94-5.19,1.42-8.29,1.42Z"/>
    <path d="M1279.43,1573.27c-1.51,0-2.81-.54-3.9-1.61s-1.63-2.37-1.63-3.89.54-2.79,1.63-3.86,2.39-1.61,3.9-1.61,2.81.54,3.9,1.61c1.09,1.07,1.63,2.36,1.63,3.86,0,1.01-.25,1.93-.76,2.76s-1.18,1.5-2.01,1.99c-.83.5-1.75.74-2.77.74Z"/>
    <path class="st0" d="M1342.95,1536.12l15.78,45.87h.64l15.78-45.87h9.25l-20.4,56.31h-9.88l-20.4-56.31h9.24Z"/>
    <path class="st0" d="M1396.06,1543.69c-1.44,0-2.67-.48-3.7-1.44-1.02-.96-1.54-2.11-1.54-3.45s.51-2.52,1.54-3.48c1.02-.96,2.26-1.44,3.7-1.44s2.67.48,3.69,1.44c1.02.96,1.54,2.11,1.54,3.45s-.51,2.52-1.54,3.48c-1.02.96-2.26,1.44-3.69,1.44ZM1391.88,1592.44v-42.24h8.28v42.24h-8.28Z"/>
    <path class="st0" d="M1429.61,1593.29c-4.19,0-7.79-.89-10.81-2.68-3.02-1.79-5.34-4.31-6.98-7.56-1.63-3.25-2.45-7.07-2.45-11.45s.82-8.14,2.45-11.44c1.63-3.3,3.92-5.88,6.86-7.73,2.94-1.85,6.39-2.78,10.34-2.78,2.4,0,4.72.39,6.98,1.18,2.25.79,4.27,2.03,6.06,3.71,1.79,1.69,3.2,3.87,4.23,6.56,1.03,2.69,1.55,5.94,1.55,9.78v2.91h-33.79v-6.16h25.69c0-2.16-.44-4.08-1.33-5.76-.89-1.68-2.13-3-3.72-3.97s-3.46-1.46-5.6-1.46c-2.33,0-4.35.56-6.08,1.69-1.73,1.13-3.05,2.59-3.99,4.4-.93,1.81-1.4,3.76-1.4,5.87v4.81c0,2.82.5,5.22,1.51,7.2,1,1.98,2.41,3.49,4.22,4.52,1.81,1.04,3.92,1.55,6.34,1.55,1.57,0,3-.22,4.29-.67,1.29-.45,2.41-1.12,3.35-2.02s1.66-2.01,2.16-3.33l7.83,1.4c-.63,2.29-1.75,4.29-3.36,6.01-1.62,1.71-3.64,3.04-6.06,3.99-2.43.94-5.19,1.42-8.29,1.42Z"/>
    <path class="st0" d="M1476.91,1550.2v6.6h-23.22v-6.6h23.22ZM1459.92,1540.08h8.28v39.95c0,1.59.24,2.79.72,3.59.48.8,1.1,1.34,1.87,1.62s1.6.43,2.5.43c.67,0,1.25-.04,1.74-.14s.89-.17,1.16-.22l1.5,6.79c-.48.18-1.16.37-2.05.56-.89.19-1.99.3-3.32.32-2.18.04-4.21-.35-6.09-1.15-1.88-.81-3.4-2.05-4.57-3.74-1.16-1.69-1.74-3.8-1.74-6.35v-41.66Z"/>
    <path class="st0" d="M1494.32,1567.36v25.08h-8.28v-42.24h7.94v6.87h.53c.98-2.24,2.51-4.03,4.61-5.39,2.09-1.36,4.74-2.03,7.93-2.03,2.9,0,5.43.6,7.61,1.8,2.18,1.2,3.87,2.98,5.06,5.35,1.2,2.37,1.8,5.29,1.8,8.77v26.86h-8.28v-25.88c0-3.06-.8-5.46-2.41-7.19-1.61-1.73-3.81-2.6-6.62-2.6-1.92,0-3.62.41-5.11,1.24-1.49.83-2.66,2.03-3.52,3.62-.86,1.59-1.29,3.5-1.29,5.73Z"/>
    <path class="st0" d="M1544.97,1593.37c-2.69,0-5.13-.5-7.31-1.5-2.18-1-3.9-2.45-5.16-4.36-1.26-1.91-1.9-4.24-1.9-7.01,0-2.38.46-4.34,1.38-5.88s2.17-2.76,3.74-3.66c1.57-.9,3.32-1.58,5.26-2.03s3.91-.81,5.92-1.04c2.55-.29,4.61-.54,6.2-.73,1.59-.19,2.74-.51,3.46-.95.72-.44,1.08-1.15,1.08-2.14v-.19c0-2.4-.68-4.26-2.04-5.58-1.36-1.32-3.37-1.98-6.05-1.98s-4.98.61-6.57,1.83c-1.6,1.22-2.7,2.57-3.31,4.06l-7.78-1.76c.92-2.57,2.27-4.64,4.05-6.23,1.78-1.59,3.83-2.74,6.16-3.46,2.32-.72,4.77-1.09,7.33-1.09,1.7,0,3.5.2,5.41.59,1.91.39,3.7,1.11,5.37,2.16,1.67,1.04,3.04,2.54,4.11,4.47,1.07,1.93,1.6,4.44,1.6,7.52v28.05h-8.08v-5.77h-.33c-.54,1.06-1.34,2.11-2.41,3.13s-2.44,1.88-4.12,2.56c-1.68.68-3.69,1.02-6.03,1.02ZM1546.77,1586.78c2.29,0,4.25-.45,5.88-1.35s2.88-2.08,3.74-3.53c.86-1.46,1.29-3.02,1.29-4.69v-5.44c-.29.29-.86.56-1.7.81-.84.25-1.79.46-2.87.63-1.07.17-2.11.33-3.13.47-1.02.14-1.86.25-2.55.34-1.61.2-3.07.54-4.39,1.02s-2.37,1.16-3.16,2.05c-.78.89-1.18,2.07-1.18,3.53,0,2.04.76,3.57,2.27,4.61,1.51,1.04,3.44,1.55,5.78,1.55Z"/>
    <path class="st0" d="M1576.97,1592.44v-42.24h7.94v6.87h.53c.89-2.33,2.33-4.15,4.34-5.46,2.01-1.31,4.42-1.97,7.22-1.97s5.23.66,7.15,1.98c1.93,1.32,3.35,3.13,4.28,5.44h.44c1.01-2.25,2.63-4.06,4.84-5.4,2.21-1.35,4.85-2.02,7.92-2.02,3.86,0,7.01,1.2,9.45,3.6,2.45,2.4,3.67,6.02,3.67,10.86v28.32h-8.28v-27.55c0-2.86-.78-4.93-2.35-6.21s-3.44-1.92-5.62-1.92c-2.69,0-4.79.82-6.28,2.46-1.5,1.64-2.24,3.74-2.24,6.31v26.92h-8.25v-28.07c0-2.29-.72-4.13-2.16-5.53-1.44-1.39-3.31-2.09-5.62-2.09-1.57,0-3.01.41-4.33,1.22-1.32.82-2.38,1.95-3.18,3.4-.8,1.45-1.2,3.13-1.2,5.03v26.04h-8.28Z"/>
    <path d="M1650.01,1543.69c-1.44,0-2.67-.48-3.7-1.44-1.02-.96-1.54-2.11-1.54-3.45s.51-2.52,1.54-3.48c1.02-.96,2.26-1.44,3.7-1.44s2.67.48,3.69,1.44c1.02.96,1.54,2.11,1.54,3.45s-.51,2.52-1.54,3.48c-1.02.96-2.26,1.44-3.69,1.44ZM1645.83,1592.44v-42.24h8.28v42.24h-8.28Z"/>
    <path d="M1683.55,1593.29c-4.19,0-7.79-.89-10.81-2.68-3.02-1.79-5.34-4.31-6.98-7.56-1.63-3.25-2.45-7.07-2.45-11.45s.82-8.14,2.45-11.44c1.63-3.3,3.92-5.88,6.86-7.73,2.94-1.85,6.39-2.78,10.34-2.78,2.4,0,4.72.39,6.98,1.18,2.25.79,4.27,2.03,6.06,3.71,1.79,1.69,3.2,3.87,4.23,6.56,1.03,2.69,1.55,5.94,1.55,9.78v2.91h-33.79v-6.16h25.69c0-2.16-.44-4.08-1.33-5.76-.89-1.68-2.13-3-3.72-3.97s-3.46-1.46-5.6-1.46c-2.33,0-4.35.56-6.08,1.69-1.73,1.13-3.05,2.59-3.99,4.4-.93,1.81-1.4,3.76-1.4,5.87v4.81c0,2.82.5,5.22,1.51,7.2,1,1.98,2.41,3.49,4.22,4.52,1.81,1.04,3.92,1.55,6.34,1.55,1.57,0,3-.22,4.29-.67,1.29-.45,2.41-1.12,3.35-2.02s1.66-2.01,2.16-3.33l7.83,1.4c-.63,2.29-1.75,4.29-3.36,6.01-1.62,1.71-3.64,3.04-6.06,3.99-2.43.94-5.19,1.42-8.29,1.42Z"/>
    <path d="M1719.29,1567.36v25.08h-8.28v-42.24h7.94v6.87h.53c.98-2.24,2.51-4.03,4.61-5.39,2.09-1.36,4.74-2.03,7.93-2.03,2.9,0,5.43.6,7.61,1.8,2.18,1.2,3.87,2.98,5.06,5.35,1.2,2.37,1.8,5.29,1.8,8.77v26.86h-8.28v-25.88c0-3.06-.8-5.46-2.41-7.19-1.61-1.73-3.81-2.6-6.62-2.6-1.92,0-3.62.41-5.11,1.24-1.49.83-2.66,2.03-3.52,3.62-.86,1.59-1.29,3.5-1.29,5.73Z"/>
    <path d="M1765.84,1567.36v25.08h-8.28v-42.24h7.94v6.87h.53c.98-2.24,2.51-4.03,4.61-5.39,2.09-1.36,4.74-2.03,7.93-2.03,2.9,0,5.43.6,7.61,1.8,2.18,1.2,3.87,2.98,5.06,5.35,1.2,2.37,1.8,5.29,1.8,8.77v26.86h-8.28v-25.88c0-3.06-.8-5.46-2.41-7.19-1.61-1.73-3.81-2.6-6.62-2.6-1.92,0-3.62.41-5.11,1.24-1.49.83-2.66,2.03-3.52,3.62-.86,1.59-1.29,3.5-1.29,5.73Z"/>
    <path d="M1822.44,1593.29c-4.19,0-7.79-.89-10.81-2.68-3.02-1.79-5.34-4.31-6.98-7.56-1.63-3.25-2.45-7.07-2.45-11.45s.82-8.14,2.45-11.44c1.63-3.3,3.92-5.88,6.86-7.73,2.94-1.85,6.39-2.78,10.34-2.78,2.4,0,4.72.39,6.98,1.18,2.25.79,4.27,2.03,6.06,3.71,1.79,1.69,3.2,3.87,4.23,6.56,1.03,2.69,1.55,5.94,1.55,9.78v2.91h-33.79v-6.16h25.69c0-2.16-.44-4.08-1.33-5.76-.89-1.68-2.13-3-3.72-3.97s-3.46-1.46-5.6-1.46c-2.33,0-4.35.56-6.08,1.69-1.73,1.13-3.05,2.59-3.99,4.4-.93,1.81-1.4,3.76-1.4,5.87v4.81c0,2.82.5,5.22,1.51,7.2,1,1.98,2.41,3.49,4.22,4.52,1.81,1.04,3.92,1.55,6.34,1.55,1.57,0,3-.22,4.29-.67,1.29-.45,2.41-1.12,3.35-2.02s1.66-2.01,2.16-3.33l7.83,1.4c-.63,2.29-1.75,4.29-3.36,6.01-1.62,1.71-3.64,3.04-6.06,3.99-2.43.94-5.19,1.42-8.29,1.42Z"/>
  </g>
  <path class="st0" d="M1128.72,901.55c-.07,0-.14-.01-.21-.01-27.78,49.94-81.09,83.8-142.18,83.8s-118.43-36.48-145.23-89.55c-.91.09-1.82.15-2.74.15-7,0-13.23-2.38-18.21-6.31,26.56,65.74,91.03,112.25,166.17,112.25s139.3-46.28,165.98-111.77c-5.78,6.91-14.57,11.43-23.59,11.43Z"/>
  <g>
    <path class="st0" d="M1271.89,630.69h-570.06c-10.22,0-18.53,8.31-18.53,18.53,0,105.79,56.17,205.14,146.82,259.76,2.48-5.09,6.45-9.46,11.25-12.56-.24-.16-.47-.34-.73-.49-8.19-4.87-16.05-10.16-23.63-15.77-7.28-3.56-13.6-8.72-18.63-15-61.54-53.97-98.26-132.84-98.26-215.94,0-.94.77-1.71,1.71-1.71h570.06c.94,0,1.71.77,1.71,1.71,0,81.32-35.17,158.58-94.35,212.42-1.01,3.72-3.52,6.97-7.52,8.35-.74,5.65-4.73,10.79-11.96,10.97-1.7,4.23-5.51,7.52-11.45,7.52-1.09,0-2.1-.11-3.04-.32-3.99,2.67-8.04,5.27-12.19,7.74-.15.09-.28.19-.42.29,4.63,3.29,8.29,7.88,10.58,13.21,90.81-54.7,147.16-154.21,147.16-260.18,0-10.22-8.31-18.53-18.53-18.53Z"/>
    <path class="st0" d="M840.03,616.88c4.64,0,8.41-3.76,8.41-8.41,0-76.27,62.05-138.33,138.33-138.33,36.85,0,71.52,14.33,97.63,40.35,3.29,3.28,8.61,3.27,11.89-.02,3.28-3.29,3.27-8.61-.02-11.89-29.28-29.18-68.17-45.26-109.5-45.26-85.55,0-155.14,69.6-155.14,155.15,0,4.64,3.76,8.41,8.41,8.41Z"/>
    <path class="st0" d="M1068.42,537.77c3.26-3.3,3.23-8.63-.07-11.89-21.89-21.62-50.86-33.53-81.58-33.53-64.03,0-116.12,52.09-116.12,116.12,0,4.64,3.76,8.41,8.41,8.41s8.41-3.76,8.41-8.41c0-54.75,44.55-99.3,99.3-99.3,26.27,0,51.04,10.18,69.76,28.68,3.3,3.26,8.63,3.23,11.89-.07Z"/>
    <path class="st0" d="M1036.11,573.92c2.66,3.81,7.91,4.72,11.71,2.05,3.8-2.66,4.72-7.91,2.05-11.71-14.44-20.59-38.03-32.89-63.11-32.89-42.51,0-77.09,34.58-77.09,77.09,0,4.64,3.76,8.41,8.41,8.41s8.41-3.76,8.41-8.41c0-33.24,27.04-60.27,60.28-60.27,19.6,0,38.04,9.62,49.34,25.73Z"/>
    <path class="st0" d="M948.69,608.47c0,4.64,3.76,8.41,8.41,8.41s8.41-3.76,8.41-8.41c0-11.72,9.53-21.25,21.25-21.25s21.25,9.53,21.25,21.25c0,4.64,3.76,8.41,8.41,8.41s8.41-3.76,8.41-8.41c0-20.99-17.07-38.07-38.06-38.07s-38.07,17.08-38.07,38.07Z"/>
    <path class="st0" d="M1267.42,616.88c4.64,0,8.41-3.76,8.41-8.41,0-61.28-49.86-111.14-111.14-111.14s-111.14,49.86-111.14,111.14c0,4.64,3.76,8.41,8.41,8.41s8.41-3.76,8.41-8.41c0-52.01,42.31-94.33,94.32-94.33s94.33,42.32,94.33,94.33c0,4.64,3.76,8.41,8.41,8.41Z"/>
    <path class="st0" d="M1222.48,608.47c0,4.64,3.76,8.41,8.41,8.41s8.41-3.76,8.41-8.41c0-41.14-33.47-74.61-74.61-74.61s-74.61,33.47-74.61,74.61c0,4.64,3.76,8.41,8.41,8.41s8.41-3.76,8.41-8.41c0-31.86,25.92-57.79,57.79-57.79s57.79,25.92,57.79,57.79Z"/>
    <path class="st0" d="M1126.62,608.47c0,4.64,3.76,8.41,8.41,8.41s8.41-3.76,8.41-8.41c0-11.72,9.53-21.25,21.25-21.25s21.25,9.53,21.25,21.25c0,4.64,3.76,8.41,8.41,8.41s8.41-3.76,8.41-8.41c0-20.99-17.08-38.07-38.06-38.07s-38.06,17.08-38.06,38.07Z"/>
    <path class="st0" d="M841.46,520.06c4.36,1.61,9.19-.62,10.8-4.97,1.61-4.36-.62-9.19-4.97-10.8-12.51-4.62-25.45-6.96-38.45-6.96-61.28,0-111.14,49.86-111.14,111.14,0,4.64,3.76,8.41,8.41,8.41s8.41-3.76,8.41-8.41c0-52.01,42.31-94.33,94.33-94.33,11.01,0,21.99,1.99,32.63,5.92Z"/>
    <path class="st0" d="M835.21,547.21c1.28-4.46-1.3-9.12-5.76-10.4-6.81-1.95-13.74-2.95-20.62-2.95-41.14,0-74.6,33.47-74.6,74.61,0,4.64,3.76,8.41,8.41,8.41s8.41-3.76,8.41-8.41c0-31.86,25.92-57.79,57.79-57.79,5.31,0,10.68.77,15.98,2.29,4.47,1.28,9.12-1.3,10.4-5.76Z"/>
    <path class="st0" d="M819.76,572.14c-3.89-1.17-7.47-1.74-10.92-1.74-20.99,0-38.06,17.08-38.06,38.07,0,4.64,3.76,8.41,8.41,8.41s8.41-3.76,8.41-8.41c0-11.72,9.53-21.25,21.25-21.25,1.82,0,3.75.33,6.08,1.03,4.45,1.34,9.14-1.18,10.48-5.63,1.34-4.45-1.18-9.14-5.63-10.47Z"/>
    <path class="st0" d="M1054.07,254.75c-3.73-1.04-7.6,1.14-8.64,4.87-.47,1.7-.83,3.29-1.21,4.9l-21.41,8.1c-.55-1.45-1.55-2.75-3-3.59-3.35-1.95-7.64-.82-9.6,2.53-1.42,2.44-2.6,4.83-3.58,7.18l-18.96,7.18c-.87-2.28-2.87-4.06-5.46-4.46-2.85-.45-5.58.91-7.03,3.21l-.2.24c-2.12,2.51-3.96,5.15-5.53,7.9l-19.14,7.24c-.62-1.64-1.84-3.05-3.54-3.86-2.87-1.36-6.21-.6-8.23,1.65-.19.13-.4.27-.64.43-2.48,1.65-7.21,4.81-11.09,10.68l-20.24,7.66c-1.18-3.13-4.45-5.06-7.85-4.42-12.35,2.34-18.27,9.26-21.12,15.38l-72.43,27.41c-1.23.47-1.89,1.83-1.47,3.09.43,1.29,1.83,1.99,3.12,1.56l68.18-22.73c-.23,1.96-.29,3.94-.22,5.9l-50.45,12.08c-1.28.31-2.11,1.58-1.85,2.88.26,1.34,1.56,2.21,2.9,1.94l50.26-9.93c1.18,5.63,3.43,10.72,6.22,14.22,2.88,3.61,5.61,6.57,8.01,9.19,7.06,7.68,10.61,11.54,10.61,22.41,0,5.59-2.65,8.21-7.73,12.75-5.24,4.68-12.42,11.08-12.42,23.21s7.17,18.55,12.41,23.23c1.09.98,2.19,1.95,3.22,2.98,1.37,1.37,3.16,2.05,4.96,2.05s3.59-.69,4.96-2.06c2.74-2.74,2.74-7.18,0-9.92-1.21-1.21-2.5-2.36-3.78-3.51-5.08-4.54-7.73-7.17-7.73-12.76s2.65-8.21,7.73-12.75c5.24-4.68,12.42-11.08,12.42-23.22,0-16.34-6.63-23.56-14.31-31.91-2.36-2.56-4.79-5.21-7.37-8.44-.64-.8-1.25-1.93-1.81-3.22-.63-1.46-1.17-3.15-1.56-4.98-.53-2.44-.76-5.06-.57-7.63.13-1.69.41-3.35.97-4.87.19-.5.41-.97.64-1.43.32-.62.67-1.21,1.07-1.75l30.09-10.03c-.27,1.24-.49,2.55-.66,3.92-.25,2.02-.34,4.23-.33,6.55,0,2.77.19,5.72.64,8.94.25,1.73.56,3.53.95,5.4.02.07.02.14.04.21,2.2,10.31,7.94,15.98,12.56,20.54,4.52,4.46,7.5,7.41,7.5,14.09,0,5.62-2.66,8.25-7.76,12.81-5.55,4.95-12.45,11.11-12.45,23.27,0,18.08,13.26,26.12,20.27,27.85.56.14,1.12.2,1.68.2,3.11,0,5.92-2.1,6.74-5.26.97-3.71-1.27-7.53-4.97-8.55-1.62-.44-9.68-3.22-9.68-14.25,0-5.62,2.66-8.25,7.76-12.81,5.55-4.95,12.45-11.11,12.45-23.27s-6.47-18.93-11.67-24.07c-3.93-3.88-7.32-7.24-8.66-13.36,0-.04-.02-.08-.03-.12-.41-1.93-.69-3.7-.92-5.41-.48-3.64-.58-6.83-.36-9.59.22-2.75.74-5.09,1.44-7.09.85-2.42,1.98-4.36,3.2-5.92l24.57-8.19c-.5,2.34-.83,4.75-1.02,7.22-.18,2.36-.22,4.78-.11,7.26.15,3.42.57,6.95,1.26,10.59.04.22.07.45.12.67.37,1.83.88,3.47,1.45,5.03,2.66,7.27,7.22,11.83,11.04,15.58,4.64,4.55,7.44,7.3,7.44,13.85,0,7.01-2.81,9.9-7.48,14.69-4.24,4.35-9.51,9.76-12.3,19.12-6.2,20.79,9.53,33.59,15.46,38.4.67.54,1.23.98,1.6,1.33,1.38,1.68,3.39,2.57,5.43,2.57,1.44,0,2.89-.44,4.14-1.36,3.12-2.29,3.8-6.68,1.51-9.81-.92-1.25-2.14-2.25-3.83-3.62-6.96-5.66-14.11-12.61-10.86-23.51,1.81-6.06,5.1-9.43,8.9-13.35,5.37-5.51,11.45-11.76,11.45-24.48s-6.45-18.77-11.64-23.86c-2.78-2.73-5.14-5.08-6.77-8.22-.78-1.49-1.4-3.15-1.8-5.13-.04-.22-.06-.42-.1-.64-.74-3.92-1.06-7.66-1-11.23.05-2.66.29-5.23.78-7.69.64-3.16,1.62-6.17,3-8.99l22.25-7.42c-.21,3.38-.05,6.64.43,9.79.39,2.6.98,5.12,1.73,7.56,1.25,4.1,2.92,7.99,4.79,11.66,1.02,2.01,2.1,3.96,3.19,5.83,1.63,2.79,3.29,5.44,4.87,7.94,4.16,6.61,8.09,12.85,8.09,16.86,0,5.56-2.64,8.17-7.7,12.68-5.22,4.66-12.38,11.05-12.38,23.15s7.15,18.5,12.37,23.17c2.23,1.99,4.34,3.88,5.73,5.95.4.83,2.18,4.83.94,8.63-.92,2.82-3.48,5.23-7.61,7.18-3.5,1.65-5,5.84-3.34,9.34,1.2,2.53,3.72,4.02,6.35,4.02,1,0,2.02-.22,2.99-.68,7.84-3.71,12.89-9,15.02-15.73,3.15-9.96-1.63-18.82-2.19-19.8-.06-.11-.13-.22-.2-.33-2.41-3.76-5.56-6.57-8.33-9.05-5.06-4.52-7.7-7.14-7.7-12.71s2.64-8.17,7.69-12.68c5.23-4.66,12.38-11.05,12.38-23.15,0-8.06-4.98-15.96-10.24-24.34-.68-1.07-1.35-2.15-2.02-3.23-1.21-1.95-2.4-3.92-3.52-5.91-2.22-3.92-4.16-7.93-5.49-12.09-.82-2.54-1.39-5.15-1.66-7.82-.36-3.6-.17-7.33.81-11.24l23.73-7.91c-.26,4.66-.05,8.86.48,12.71.41,2.96,1,5.71,1.78,8.25,1.54,5.05,3.68,9.34,6.09,13.03,1.43,2.18,2.94,4.16,4.47,5.98,2.26,2.68,4.55,5.02,6.64,7.14,3.64,3.71,6.79,6.9,6.79,9.18,0,5.58-2.65,8.2-7.72,12.73-5.23,4.67-12.4,11.07-12.4,23.2s7.17,18.53,12.4,23.2c5.07,4.53,7.72,7.15,7.72,12.73,0,.31.02.66.06.97.13.95,2.92,23.26-15.02,30.18-3.61,1.39-5.42,5.45-4.02,9.07,1.07,2.79,3.73,4.49,6.55,4.49.84,0,1.69-.15,2.52-.47,22.43-8.64,25.47-32.75,23.93-44.74-.19-11.8-7.24-18.09-12.4-22.7-5.07-4.53-7.72-7.15-7.72-12.73s2.65-8.2,7.72-12.73c5.23-4.67,12.4-11.07,12.4-23.2,0-8.02-5.5-13.61-10.81-19.01-1.92-1.95-3.92-4.01-5.84-6.3l201.6-39.82c.13-.03.31-.07.45-.1,6.16-1.47,9.95-7.66,8.48-13.82-1.48-6.16-7.66-9.96-13.82-8.48l-204.3,48.92c-1.94-5.85-2.72-13.12-1.47-22.52l177.52-59.18c.13-.04.3-.1.43-.15,5.92-2.24,8.91-8.86,6.67-14.78-2.24-5.92-8.86-8.91-14.78-6.67l-167.32,63.31c-.76-2.01-2.42-3.66-4.66-4.28Z"/>
  </g>
  <path class="st0" d="M1100.08,723.32c-2.04-.37-4.09-.69-6.14-1-.73-.07-4.43-.54-5.16-.6-5.46-.47-10.94-.74-16.42-.9-10.12-.3-20.25-.16-30.38-.03-21.96.28-43.92-.03-65.88.21-37.45.4-75.01.33-112.45-1.58-17.9,26.15-26.61,56.81-26.1,91.97.62,42.72,15.05,78.68,43.27,107.86,28.78,29.59,64.4,44.08,106.84,43.46,42.72-.62,77.97-16.14,105.74-46.56,27.23-29.72,40.52-66.07,39.9-109.07-.46-31.67-8.44-59.48-23.89-83.45-3.11.33-6.27.26-9.33-.29ZM1035.76,860.97c-13.32,15.96-29.73,24.08-49.22,24.37-20.46.3-37.37-7.06-50.73-22.08-12.79-14.33-19.34-31.87-19.64-52.61-.29-19.77,5.96-37.22,18.74-52.34,13.46-15.83,29.94-23.88,49.43-24.16,20.88-.3,37.93,6.84,51.14,21.45,12.51,13.92,18.92,31.46,19.23,52.62.29,19.77-6.02,37.36-18.94,52.76Z"/>
  <path class="st0" d="M869.52,893.2c2.04.4,4.08.75,6.13,1.09.73.08,4.42.61,5.16.68,5.46.55,10.93.9,16.41,1.14,10.12.44,20.25.46,30.38.48,21.96.04,43.91.67,65.88.75,37.46.14,75.01.76,112.41,3.22,18.28-25.89,27.43-56.41,27.43-91.58,0-42.73-13.9-78.89-41.69-108.48-28.35-30.01-63.75-45.01-106.2-45.01s-78.2,15-106.41,45.01c-27.66,29.32-41.48,65.48-41.48,108.48,0,31.67,7.57,59.59,22.67,83.79,3.11-.29,6.27-.17,9.33.43ZM935.85,756.5c13.55-15.76,30.08-23.65,49.57-23.65,20.46,0,37.26,7.61,50.4,22.82,12.58,14.52,18.88,32.15,18.88,52.89s-6.5,37.13-19.5,52.06c-13.69,15.63-30.28,23.44-49.78,23.44-20.88,0-37.82-7.4-50.82-22.19-12.31-14.11-18.46-31.74-18.46-52.89,0-19.77,6.57-37.26,19.7-52.48Z"/>
  <path class="st0" d="M783.76,851.4s32.33,31.9,57.61,45.02c0,0,19.2,37.19,43.59,53.35l-44.49-35.88-51.24-39.9-16.2-17.38,10.73-5.2Z"/>
  <path class="st0" d="M1124.77,907.89l7.91-11.7s42.92-27.23,62.08-49.71l2.95,14.86-64.66,48.89-10,11.55,1.73-13.89Z"/>
</svg>